<?xml version="1.0" encoding="utf-8"?>
<!-- Generator: Adobe Illustrator 24.2.3, SVG Export Plug-In . SVG Version: 6.00 Build 0)  -->
<svg version="1.1" xmlns="http://www.w3.org/2000/svg" xmlns:xlink="http://www.w3.org/1999/xlink" x="0px" y="0px"
	 viewBox="0 0 767.5 453.4" style="enable-background:new 0 0 767.5 453.4;" xml:space="preserve">
<style type="text/css">
	.st0{fill:#D1EEFF;}
	.st1{fill:#E0F3FF;}
	.st2{fill:url(#SVGID_1_);}
	.st3{fill:url(#SVGID_2_);}
	.st4{fill:#FFFFFF;}
	.st5{fill:url(#SVGID_3_);}
	.st6{opacity:0.5;fill:url(#SVGID_4_);}
	.st7{fill:url(#SVGID_5_);}
	.st8{opacity:0.5;fill:url(#SVGID_6_);}
	.st9{fill:url(#SVGID_7_);}
	.st10{fill:url(#SVGID_8_);}
	.st11{fill:url(#SVGID_9_);}
	.st12{clip-path:url(#SVGID_11_);}
	.st13{opacity:0.19;}
	.st14{fill:#001200;}
	.st15{fill:#E4688E;}
	.st16{fill:url(#SVGID_12_);}
	.st17{opacity:0.3;fill:url(#SVGID_13_);}
	.st18{opacity:0.5;fill:url(#SVGID_14_);}
	.st19{fill:url(#SVGID_15_);}
	.st20{fill:url(#SVGID_16_);}
	.st21{opacity:0.5;fill:url(#SVGID_17_);}
	.st22{fill:url(#SVGID_18_);}
	.st23{fill:url(#SVGID_19_);}
	.st24{fill:#25ACE0;}
	.st25{fill:url(#SVGID_20_);}
	.st26{fill:#057056;}
	.st27{opacity:0.5;fill:#048E6A;}
	.st28{fill:url(#SVGID_21_);}
	.st29{opacity:0.3;fill:url(#SVGID_22_);}
	.st30{opacity:0.5;fill:url(#SVGID_23_);}
	.st31{fill:url(#SVGID_24_);}
	.st32{fill:url(#SVGID_25_);}
	.st33{opacity:0.5;fill:url(#SVGID_26_);}
	.st34{opacity:0.5;fill:url(#SVGID_27_);}
	.st35{fill:url(#SVGID_28_);}
	.st36{opacity:0.5;fill:url(#SVGID_29_);}
	.st37{opacity:0.5;fill:url(#SVGID_30_);}
	.st38{fill:#7CFBD2;}
	.st39{opacity:0.4;fill:url(#SVGID_31_);}
	.st40{opacity:0.5;fill:url(#SVGID_32_);}
	.st41{opacity:0.5;fill:url(#SVGID_33_);}
	.st42{opacity:0.5;fill:url(#SVGID_34_);}
	.st43{opacity:0.5;fill:url(#SVGID_35_);}
	.st44{fill:url(#SVGID_36_);}
	.st45{fill:url(#SVGID_37_);}
	.st46{opacity:0.5;fill:url(#SVGID_38_);}
	.st47{opacity:0.5;fill:url(#SVGID_39_);}
	.st48{fill:url(#SVGID_40_);}
	.st49{opacity:0.5;fill:url(#SVGID_41_);}
	.st50{opacity:0.5;fill:url(#SVGID_42_);}
	.st51{opacity:0.4;fill:url(#SVGID_43_);}
	.st52{opacity:0.5;fill:url(#SVGID_44_);}
	.st53{opacity:0.5;fill:url(#SVGID_45_);}
	.st54{opacity:0.5;fill:url(#SVGID_46_);}
	.st55{opacity:0.5;fill:url(#SVGID_47_);}
	.st56{fill:url(#SVGID_48_);}
	.st57{opacity:0.3;fill:url(#SVGID_49_);}
	.st58{opacity:0.3;fill:url(#SVGID_50_);}
	.st59{opacity:0.3;fill:url(#SVGID_51_);}
	.st60{opacity:0.5;fill:url(#SVGID_52_);}
	.st61{fill:url(#SVGID_53_);}
	.st62{opacity:0.5;fill:url(#SVGID_54_);}
	.st63{fill:url(#SVGID_55_);}
	.st64{opacity:0.3;fill:url(#SVGID_56_);}
	.st65{opacity:0.3;fill:url(#SVGID_57_);}
	.st66{opacity:0.5;fill:url(#SVGID_58_);}
	.st67{fill:url(#SVGID_59_);}
	.st68{opacity:0.5;fill:url(#SVGID_60_);}
	.st69{fill:#131163;}
	.st70{fill:url(#SVGID_61_);}
	.st71{fill:url(#SVGID_62_);}
	.st72{opacity:0.7;fill:url(#SVGID_63_);}
	.st73{fill:url(#SVGID_64_);}
	.st74{fill:url(#SVGID_65_);}
	.st75{fill:url(#SVGID_66_);}
	.st76{fill:url(#SVGID_67_);}
	.st77{fill:url(#SVGID_68_);}
	.st78{fill:url(#SVGID_69_);}
	.st79{fill:url(#SVGID_70_);}
	.st80{fill:url(#SVGID_71_);}
	.st81{fill:url(#SVGID_72_);}
	.st82{fill:#FFEBED;}
	.st83{fill:url(#SVGID_73_);}
	.st84{fill:url(#SVGID_74_);}
	.st85{fill:url(#SVGID_75_);}
	.st86{fill:url(#SVGID_76_);}
	.st87{fill:url(#SVGID_77_);}
	.st88{fill:url(#SVGID_78_);}
	.st89{fill:#FFB398;}
	.st90{fill:url(#SVGID_79_);}
	.st91{fill:#CB4D7A;}
	.st92{fill:#9F4A8B;}
	.st93{fill:url(#SVGID_80_);}
	.st94{fill:url(#SVGID_81_);}
	.st95{fill:url(#SVGID_82_);}
	.st96{fill:url(#SVGID_83_);}
	.st97{fill:url(#SVGID_84_);}
	.st98{fill:url(#SVGID_85_);}
	.st99{fill:#7A336D;}
	.st100{fill:url(#SVGID_86_);}
	.st101{fill:url(#SVGID_87_);}
	.st102{opacity:0.5;fill:url(#SVGID_88_);}
	.st103{fill:#9860FF;}
	.st104{opacity:0.5;fill:url(#SVGID_89_);}
	.st105{fill:url(#SVGID_90_);}
	.st106{opacity:0.3;fill:url(#SVGID_91_);}
	.st107{opacity:0.3;fill:url(#SVGID_92_);}
	.st108{opacity:0.3;fill:url(#SVGID_93_);}
	.st109{opacity:0.3;fill:url(#SVGID_94_);}
	.st110{opacity:0.3;fill:url(#SVGID_95_);}
	.st111{fill:#A8B3E9;}
</style>
<g id="BACKGROUND">
	
		<rect x="17.5" y="-584.6" transform="matrix(-1 -1.224647e-16 1.224647e-16 -1 785.0638 -669.2341)" class="st0" width="750" height="500"/>
</g>
<g id="OBJECTS_1_">
	<g>
		<path class="st1" d="M241.3,431.8h309C592.6,391.2,619,334,619,270.7c0-123.3-99.9-223.2-223.2-223.2s-223.2,99.9-223.2,223.2
			C172.6,334,199,391.2,241.3,431.8z"/>
		<linearGradient id="SVGID_1_" gradientUnits="userSpaceOnUse" x1="324.1762" y1="66.8614" x2="224.4989" y2="262.2285">
			<stop  offset="0" style="stop-color:#459FFF"/>
			<stop  offset="1" style="stop-color:#A96DFF"/>
		</linearGradient>
		<path class="st2" d="M339,178.8c0,5-4,9-9,9c-5,0-9-4-9-9c0-5,4-9,9-9C335,169.9,339,173.9,339,178.8z M348.9,177.1
			c-2.3,0-4.1,1.9-4.1,4.1s1.9,4.1,4.1,4.1s4.1-1.9,4.1-4.1S351.1,177.1,348.9,177.1z M262.4,87c-32.7,0-59.2,26.5-59.2,59.2
			s26.5,59.2,59.2,59.2s59.2-26.5,59.2-59.2S295.1,87,262.4,87z"/>
		<g>
			<linearGradient id="SVGID_2_" gradientUnits="userSpaceOnUse" x1="525.6154" y1="36.118" x2="485.3662" y2="159.3813">
				<stop  offset="0" style="stop-color:#459FFF"/>
				<stop  offset="1" style="stop-color:#A96DFF"/>
			</linearGradient>
			<circle class="st3" cx="512.4" cy="76.6" r="33.1"/>
			<path class="st4" d="M525.6,70.7h-7.3v-7.3c0-1.1-0.9-2-2-2h-7.8c-1.1,0-2,0.9-2,2v7.3h-7.3c-1.1,0-2,0.9-2,2v7.8
				c0,1.1,0.9,2,2,2h7.3v7.3c0,1.1,0.9,2,2,2h7.8c1.1,0,2-0.9,2-2v-7.3h7.3c1.1,0,2-0.9,2-2v-7.8C527.6,71.6,526.7,70.7,525.6,70.7z
				"/>
		</g>
		<linearGradient id="SVGID_3_" gradientUnits="userSpaceOnUse" x1="165.5503" y1="6.2508" x2="233.7166" y2="120.8667">
			<stop  offset="0" style="stop-color:#6FCAF4"/>
			<stop  offset="1" style="stop-color:#7DFFCF"/>
		</linearGradient>
		<circle class="st5" cx="212.3" cy="84.8" r="11.8"/>
		<circle class="st4" cx="298.7" cy="67.8" r="15.4"/>
		<g>
			<linearGradient id="SVGID_4_" gradientUnits="userSpaceOnUse" x1="490.5158" y1="102.966" x2="529.5659" y2="102.966">
				<stop  offset="0" style="stop-color:#CCEDFF"/>
				<stop  offset="1" style="stop-color:#9D68C2"/>
			</linearGradient>
			<path class="st6" d="M538.9,96.5c-1.8-0.2-3.5-0.3-5.3-0.3c-12.6,0-24.3,4.1-33.7,11c3.9,1.6,8.1,2.5,12.6,2.5
				C523.2,109.7,532.8,104.5,538.9,96.5z"/>
			<linearGradient id="SVGID_5_" gradientUnits="userSpaceOnUse" x1="701.226" y1="54.4994" x2="496.2062" y2="179.0207">
				<stop  offset="0" style="stop-color:#6FCAF4"/>
				<stop  offset="1" style="stop-color:#7DFFCF"/>
			</linearGradient>
			<path class="st7" d="M538.1,96.3c-31.6,0-57.2,25.6-57.2,57.2c0,5.7,0.8,11.1,2.4,16.3c-10,4.9-20.9,7.8-32,8.2
				c12.1,5.2,25.1,6.9,37.7,4.7c10,16.8,28.3,28,49.2,28c31.6,0,57.2-25.6,57.2-57.2C595.4,122,569.7,96.3,538.1,96.3z"/>
			<g>
				<path class="st4" d="M521.8,163h22.9v-24.8h-22.9V163z M533.2,147.2c0,0,3.6,5,3.6,7c0,2-1.6,3.6-3.6,3.6c-2,0-3.6-1.6-3.6-3.6
					C529.7,152.2,533.2,147.2,533.2,147.2z"/>
				<path class="st4" d="M559.9,126.9v49.8c0,2.2-1.8,4-4,4h-9.8c-2.2,0-4-1.8-4-4V171h5.5c2.8,0,5-2.2,5-5v-36.1c0-2.8-2.2-5-5-5
					H541c-0.9-3.4-4-6-7.7-6s-6.8,2.5-7.7,6h-6.7c-2.8,0-5,2.2-5,5V166c0,2.8,2.2,5,5,5h5.5v13.7h4V171h9.8v5.7c0,4.4,3.6,8,8,8h9.8
					c4.4,0,8-3.6,8-8v-49.8H559.9z M533.2,123c1.5,0,2.7,0.8,3.4,2h-6.8C530.5,123.8,531.8,123,533.2,123z M517.8,166v-36.1
					c0-0.6,0.4-1,1-1h28.9c0.6,0,1,0.4,1,1V166c0,0.6-0.4,1-1,1h-28.9C518.2,167,517.8,166.6,517.8,166z"/>
			</g>
		</g>
		<path class="st4" d="M563.1,277.8h-17.1c-1,0-1.9,0.8-1.9,1.9v17.1c0,1,0.8,1.9,1.9,1.9h17.1c1,0,1.9-0.8,1.9-1.9v-17.1
			C565,278.6,564.2,277.8,563.1,277.8z M559.5,293.4H556v-3.8h-2.8v3.8h-3.5V283h3.5v3.8h2.8V283h3.5V293.4z"/>
		<path class="st4" d="M175.8,188.1c-1.2-1.2-2.7-1.8-4.3-1.8c-1.6,0-3.2,0.6-4.3,1.8l-6.8,6.8c-1.2,1.2-1.8,2.7-1.8,4.3
			c0,1.6,0.6,3.2,1.8,4.3c1.2,1.2,2.8,1.8,4.3,1.8c1.6,0,3.1-0.6,4.3-1.8l6.8-6.8C178.2,194.4,178.2,190.5,175.8,188.1z
			 M166.9,201.4c-1.2,1.2-3.2,1.2-4.4,0c-0.6-0.6-0.9-1.4-0.9-2.2s0.3-1.6,0.9-2.2l2.3-2.3l4.4,4.4L166.9,201.4z M173.7,194.6
			l-2.3,2.3l-4.4-4.4l2.3-2.3c0.6-0.6,1.4-0.9,2.2-0.9c0.8,0,1.6,0.3,2.2,0.9C174.9,191.4,174.9,193.4,173.7,194.6z"/>
		<path class="st4" d="M291.4,152c-6.8,11.3-18.3,18.4-21.1,20.1l-9.1,5.3l-9.1-5.3c-2.8-1.6-14.2-8.8-21.1-20.1h19.4
			c0.6,0,1.2-0.3,1.6-0.9l1.4-2.3l3.3,10.2c0.2,0.8,0.9,1.3,1.7,1.3c0,0,0,0,0.1,0c0.8,0,1.5-0.6,1.7-1.4l3.4-13.8l2.7,10.5
			c0.2,0.7,0.7,1.2,1.4,1.3c0.7,0.1,1.4-0.2,1.8-0.7l3.1-4.3H291.4z M229,148.3h20.3l3-4.8c0.4-0.6,1.1-0.9,1.8-0.9
			c0.7,0.1,1.3,0.6,1.5,1.3l2.5,7.8l3.6-14.6c0.2-0.8,0.9-1.4,1.8-1.4h0c0.8,0,1.6,0.6,1.8,1.4l3.5,13.8l1.4-1.9
			c0.3-0.5,0.9-0.8,1.5-0.8h21.8c1.2-2.5,2.1-5.2,2.7-8c1.9-9.8-4.5-19.3-14.3-21.2c-9-1.8-17.7,3.4-20.6,11.8
			c-2.9-8.4-11.6-13.6-20.6-11.8c-9.8,1.9-16.2,11.4-14.3,21.2C226.9,143.2,227.8,145.8,229,148.3z"/>
		<g>
			<linearGradient id="SVGID_6_" gradientUnits="userSpaceOnUse" x1="223.8987" y1="197.0088" x2="269.8041" y2="197.0088">
				<stop  offset="0" style="stop-color:#CCEDFF"/>
				<stop  offset="1" style="stop-color:#9D68C2"/>
			</linearGradient>
			<path class="st8" d="M223.9,191c10.4,8.9,23.8,14.3,38.5,14.3c2.5,0,4.9-0.2,7.4-0.5c-7.4-9.8-19.2-16.1-32.4-16.1
				C232.7,188.7,228.1,189.5,223.9,191z"/>
			<linearGradient id="SVGID_7_" gradientUnits="userSpaceOnUse" x1="185.0387" y1="278.4947" x2="290.4421" y2="170.4887">
				<stop  offset="0" style="stop-color:#6FCAF4"/>
				<stop  offset="1" style="stop-color:#7DFFCF"/>
			</linearGradient>
			<circle class="st9" cx="232.3" cy="230.1" r="40.6"/>
			<path class="st4" d="M232.3,255.3c-0.4,0-0.7-0.1-1-0.3c-0.4-0.3-11-6.8-15.6-16.5c-0.1-0.2-0.2-0.5-0.2-0.7l-1.5-25.9
				c0-0.6,0.2-1.2,0.7-1.6c0.5-0.4,1.1-0.6,1.7-0.4c0.1,0,9.8,2.2,15.9,2.2c6.1,0,15.8-2.2,15.9-2.2c0.6-0.1,1.3,0,1.7,0.4
				c0.5,0.4,0.7,1,0.7,1.6l-1.5,25.9c0,0.3-0.1,0.5-0.2,0.7c-4.6,9.7-15.1,16.2-15.6,16.5C233,255.2,232.7,255.3,232.3,255.3z
				 M219.5,237.1c3.3,6.8,10.2,12,12.8,13.8c2.6-1.8,9.5-7,12.9-13.8l1.3-22.9c-3.4,0.7-9.6,1.8-14.2,1.8c-4.6,0-10.7-1.1-14.2-1.8
				L219.5,237.1z M241.2,226.6l-2.8-2.8l-8,8l-3.3-3.3l-2.8,2.8l6.1,6.1L241.2,226.6z"/>
		</g>
		<g>
			<linearGradient id="SVGID_8_" gradientUnits="userSpaceOnUse" x1="500.3233" y1="263.9989" x2="545.3273" y2="218.9949">
				<stop  offset="0" style="stop-color:#459FFF"/>
				<stop  offset="1" style="stop-color:#A96DFF"/>
			</linearGradient>
			<circle class="st10" cx="521.3" cy="243" r="22"/>
			<g>
				<path class="st4" d="M527.1,236.1h-10.7v2h1.4v14.4c0,2.2,1.8,3.9,3.9,3.9c2.2,0,3.9-1.8,3.9-3.9v-14.4h1.4V236.1z M523.7,252.5
					c0,1-0.9,1.9-1.9,1.9s-1.9-0.9-1.9-1.9v-14.4h3.8V252.5z"/>
				<path class="st4" d="M521.8,233.9c1,0,1.8-0.8,1.8-1.8c0-1-1.8-3.5-1.8-3.5s-1.8,2.5-1.8,3.5C520,233.1,520.8,233.9,521.8,233.9
					z"/>
			</g>
		</g>
		<path class="st4" d="M261.2,283.3c-7,0-12.6,5.7-12.6,12.6s5.7,12.6,12.6,12.6c7,0,12.6-5.7,12.6-12.6S268.1,283.3,261.2,283.3z
			 M270.8,301h-4.9c0.2-1.3,0.3-2.8,0.4-4.2h5.8C271.9,298.3,271.4,299.7,270.8,301z M261.2,306.8c-0.8,0-1.8-1.5-2.5-4h4.9
			C263,305.3,262,306.8,261.2,306.8z M258.3,301c-0.2-1.2-0.4-2.6-0.4-4.2h6.5c0,1.6-0.2,3-0.4,4.2H258.3z M250.4,296.8h5.8
			c0,1.4,0.2,2.9,0.4,4.2h-4.9C250.9,299.7,250.5,298.3,250.4,296.8z M251.6,290.9h4.9c-0.2,1.3-0.3,2.8-0.4,4.2h-5.8
			C250.5,293.5,250.9,292.1,251.6,290.9z M261.2,285.1c0.8,0,1.8,1.5,2.5,4h-4.9C259.4,286.5,260.4,285.1,261.2,285.1z M264,290.9
			c0.2,1.2,0.4,2.6,0.4,4.2h-6.5c0-1.6,0.2-3,0.4-4.2H264z M266.2,295c0-1.4-0.2-2.9-0.4-4.2h4.9c0.7,1.3,1.1,2.7,1.2,4.2H266.2z
			 M269.6,289.1h-4.1c-0.3-1.4-0.8-2.6-1.3-3.6C266.3,286.1,268.2,287.4,269.6,289.1z M258.2,285.5c-0.6,1-1,2.2-1.3,3.6h-4.1
			C254.2,287.4,256.1,286.1,258.2,285.5z M252.8,302.7h4.1c0.3,1.4,0.8,2.6,1.3,3.6C256.1,305.7,254.2,304.5,252.8,302.7z
			 M264.1,306.3c0.6-1,1-2.2,1.3-3.6h4.1C268.2,304.5,266.3,305.7,264.1,306.3z"/>
		<path class="st4" d="M596.2,237.9c-0.8-0.3-1.6,0.2-1.9,0.9l-0.7,2.2l-2.1-0.7c0.1-0.6,0.2-1.2,0.2-1.8c0-3.1-1.5-5.9-3.9-7.7
			l1-1.8l1.2,0.7c0.5,0.3,1.2,0.1,1.5-0.4c0.3-0.5,0.1-1.2-0.4-1.5l-4.5-2.6c-0.5-0.3-1.2-0.1-1.5,0.4c-0.3,0.5-0.1,1.2,0.4,1.5
			l1.2,0.7l-1,1.8c-1.1-0.5-2.4-0.7-3.7-0.7c-2.1,0-4.1,0.7-5.7,1.9l-1.9-1.9l2.3-2.3c0.5-0.5,0.5-1.3,0-1.9c-0.5-0.5-1.3-0.5-1.9,0
			l-6.5,6.5c-0.5,0.5-0.5,1.3,0,1.9c0.5,0.5,1.3,0.5,1.9,0l2.3-2.3l1.9,1.9c-1.2,1.6-1.9,3.5-1.9,5.7c0,0.5,0.1,1,0.1,1.5l-1.5,0.4
			l-0.3-1c-0.1-0.4-0.5-0.7-1-0.6c-0.4,0.1-0.7,0.5-0.6,1l0.9,3.7c0.1,0.4,0.5,0.7,1,0.6c0.4-0.1,0.7-0.5,0.6-1l-0.3-1l1.5-0.4
			c0.7,2,2.1,3.7,3.9,4.9l-1.1,2.3l-1.2-0.5c-0.6-0.3-1.2,0-1.5,0.5c-0.3,0.6,0,1.2,0.5,1.5l4.6,2.1c0.6,0.3,1.2,0,1.5-0.5
			c0.3-0.6,0-1.2-0.5-1.5l-1.2-0.5l1.1-2.3c0.9,0.3,1.9,0.4,2.9,0.4c1.6,0,3.1-0.4,4.4-1.1l0.8,1.3l-0.5,0.3
			c-0.2,0.1-0.3,0.4-0.2,0.6c0.1,0.2,0.4,0.3,0.6,0.2l1.8-1c0.2-0.1,0.3-0.4,0.2-0.6c-0.1-0.2-0.4-0.3-0.6-0.2l-0.5,0.3l-0.8-1.3
			c0,0,0.1-0.1,0.1-0.1c0.5-0.3,1-0.7,1.4-1.2c0.4-0.4,0.8-0.9,1.2-1.4c0.2-0.4,0.5-0.8,0.7-1.2l2.1,0.7l-0.7,2.2
			c-0.3,0.8,0.2,1.6,0.9,1.9c0.8,0.3,1.6-0.2,1.9-0.9l2.3-6.8C597.4,239,597,238.1,596.2,237.9z M578.1,243.1c-1.2,0-2.2-1-2.2-2.2
			s1-2.2,2.2-2.2c1.2,0,2.2,1,2.2,2.2S579.3,243.1,578.1,243.1z M580.5,235.5c-1,0-1.8-0.8-1.8-1.8c0-1,0.8-1.8,1.8-1.8
			c1,0,1.8,0.8,1.8,1.8C582.3,234.7,581.5,235.5,580.5,235.5z M586.3,243c-1.8,0-3.2-1.4-3.2-3.2c0-1.8,1.4-3.2,3.2-3.2
			c1.8,0,3.2,1.4,3.2,3.2C589.5,241.5,588.1,243,586.3,243z"/>
		<linearGradient id="SVGID_9_" gradientUnits="userSpaceOnUse" x1="591.4138" y1="194.8321" x2="600.7902" y2="210.5976">
			<stop  offset="0" style="stop-color:#6FCAF4"/>
			<stop  offset="1" style="stop-color:#7DFFCF"/>
		</linearGradient>
		<circle class="st11" cx="597.7" cy="205.4" r="4.8"/>
		<path class="st4" d="M191.4,144.6c-0.5,0-0.9,0.3-1.2,0.7l-4-1.1c0-0.2,0.1-0.5,0.1-0.8c0-2.2-1.8-4-4-4c-1,0-1.9,0.4-2.6,1
			l-2.8-2.7c0.3-0.4,0.5-0.9,0.5-1.4c0-0.7-0.3-1.3-0.8-1.7l2.8-3.9c0.2,0.1,0.3,0.1,0.5,0.1c0.7,0,1.3-0.6,1.3-1.3
			s-0.6-1.3-1.3-1.3c-0.7,0-1.3,0.6-1.3,1.3c0,0.3,0.1,0.6,0.3,0.9l-2.8,3.9c-0.3-0.2-0.7-0.3-1.1-0.3c-1.3,0-2.4,1.1-2.4,2.4
			s1.1,2.4,2.4,2.4c0.6,0,1.1-0.2,1.5-0.5l2.8,2.7c-0.6,0.7-0.9,1.6-0.9,2.5c0,1.1,0.5,2.2,1.3,2.9l-5.7,7.2
			c-0.5-0.3-1.1-0.5-1.7-0.5c-1.8,0-3.2,1.4-3.2,3.2c0,1.8,1.4,3.2,3.2,3.2c1.8,0,3.2-1.4,3.2-3.2c0-0.9-0.4-1.7-1-2.3l5.7-7.2
			c0.6,0.4,1.4,0.7,2.2,0.7c1.7,0,3.2-1.1,3.7-2.6l4,1.1c0,0,0,0,0,0.1c0,0.7,0.6,1.3,1.3,1.3c0.7,0,1.3-0.6,1.3-1.3
			C192.7,145.2,192.1,144.6,191.4,144.6z"/>
		<g>
			<path class="st4" d="M460.8,153.5c-1.3,0-2.3,0.9-2.6,2.1l-4.7-0.7c0,0,0-0.1,0-0.1c0-1.2-1-2.2-2.2-2.2c-0.4,0-0.8,0.1-1.1,0.3
				l-1.8-2.6c0.5-0.4,0.7-1,0.7-1.6c0-1.2-1-2.2-2.2-2.2c-1.2,0-2.2,1-2.2,2.2c0,0.6,0.2,1.1,0.6,1.5l-1.1,1.3
				c-0.1-0.1-0.3-0.1-0.4-0.1c-0.5,0-0.9,0.4-0.9,0.9c0,0.5,0.4,0.9,0.9,0.9s0.9-0.4,0.9-0.9c0-0.2-0.1-0.4-0.2-0.5l1.1-1.3
				c0.3,0.2,0.8,0.4,1.2,0.4c0.4,0,0.8-0.1,1.1-0.3l1.8,2.6c-0.5,0.4-0.7,1-0.7,1.6c0,1.2,1,2.2,2.2,2.2c1,0,1.8-0.7,2.1-1.6
				l4.7,0.7c0,0.1,0,0.1,0,0.2c0,0.8,0.3,1.5,0.9,2l-3.3,4.1c-0.3-0.2-0.7-0.4-1.2-0.4c-1.2,0-2.2,1-2.2,2.2c0,1.2,1,2.2,2.2,2.2
				c1.2,0,2.2-1,2.2-2.2c0-0.6-0.3-1.2-0.7-1.5l3.3-4.1c0.4,0.3,1,0.5,1.5,0.5c1.5,0,2.7-1.2,2.7-2.7
				C463.5,154.7,462.3,153.5,460.8,153.5z"/>
			<path class="st4" d="M464.4,146.9c-0.3,0-0.6,0.2-0.8,0.5l-2.7-0.8c0-0.2,0.1-0.3,0.1-0.5c0-1.5-1.2-2.7-2.7-2.7
				c-1.5,0-2.7,1.2-2.7,2.7c0,1.5,1.2,2.7,2.7,2.7c1.2,0,2.1-0.7,2.5-1.8l2.7,0.8c0,0,0,0,0,0c0,0.5,0.4,0.9,0.9,0.9
				c0.5,0,0.9-0.4,0.9-0.9C465.3,147.3,464.9,146.9,464.4,146.9z"/>
		</g>
		<g>
			<defs>
				
					<rect id="SVGID_10_" x="123.5" y="21.7" transform="matrix(-1 -1.224647e-16 1.224647e-16 -1 788.358 453.4468)" width="541.4" height="410.1"/>
			</defs>
			<clipPath id="SVGID_11_">
				<use xlink:href="#SVGID_10_"  style="overflow:visible;"/>
			</clipPath>
			<g class="st12">
				<g class="st13">
					<g>
						<path class="st14" d="M376.6,430.9c0.8,0.5,1.6,1,2.4,1.5c0.4,0.3,0.8-0.4,0.4-0.6c-0.8-0.4-1.6-0.9-2.4-1.4
							C376.5,430.2,376.3,430.7,376.6,430.9L376.6,430.9z"/>
					</g>
				</g>
				<path class="st15" d="M382.2,183.1c8.1,1.7,16.7,0.8,24.2-2.5c0.5-5.3,1-10.9,1-10.9h-26.6C380.9,169.7,381.7,177.4,382.2,183.1
					z"/>
				<g>
					<linearGradient id="SVGID_12_" gradientUnits="userSpaceOnUse" x1="450.1795" y1="305.4853" x2="561.0003" y2="318.6002">
						<stop  offset="0" style="stop-color:#D5CDF8"/>
						<stop  offset="0.2527" style="stop-color:#E2DBF9"/>
						<stop  offset="0.6167" style="stop-color:#EFE8FB"/>
						<stop  offset="0.9412" style="stop-color:#F3EDFB"/>
					</linearGradient>
					<path class="st16" d="M476.5,225.4c0,0,22.8,85.1,34.3,100.4c0,0,43.1-6,57.7,3.3s6.3,54.1-10.2,65
						c-22.4,14.8-68.1-8.6-78.2-14.3c-10.1-5.7-24.7-80.9-24.7-80.9l5.9-73.1L476.5,225.4z"/>
					<linearGradient id="SVGID_13_" gradientUnits="userSpaceOnUse" x1="450.3172" y1="314.2847" x2="560.1436" y2="327.2819">
						<stop  offset="0" style="stop-color:#9D68C2"/>
						<stop  offset="1" style="stop-color:#CCEDFF"/>
					</linearGradient>
					<path class="st17" d="M510.9,325.8c-11,0.2-30.3,18.3-31.4-2.4c-1.1-20.7-12.5-81.6-12.5-81.6l-8.2,14.8l-3.4,42.2
						c0,0,14.6,75.2,24.7,80.9c10.1,5.7,55.7,29.1,78.2,14.3c13.5-8.9,21.5-40.2,16.1-56.6L553,325.6c0,0-14.2-0.4-28.1,17
						c-13.9,17.4-3.5,43.6-3.5,43.6s-21.6-5.8-28.1-21.7C486.8,348.7,510.9,325.8,510.9,325.8z"/>
					<linearGradient id="SVGID_14_" gradientUnits="userSpaceOnUse" x1="507.9507" y1="386.006" x2="521.7781" y2="317.8565">
						<stop  offset="0" style="stop-color:#B1D4F7"/>
						<stop  offset="1" style="stop-color:#637EC9"/>
					</linearGradient>
					<path class="st18" d="M562.4,332.1c1.1,0.1,2.3,0.3,3.4,0.6l8.6,4.8c5.4,16.3-2.6,47.7-16.1,56.6
						c-22.4,14.8-68.1-8.6-78.2-14.3c-3.8-2.2-8.3-14.4-12.4-28.7c4.2,8.4,10.5,16.4,15.7,23.7c0.5-5.8-0.3-11.8,0.2-17.6
						c0.1,8.5,0.6,17.8,6.4,23.9c3.4,3.5,8.1,5.5,12.7,7c9.1,3,18.6,4.9,28.2,5.6c-9.8-12.2-11.4-30.3-3.7-43.9
						C534.1,337.7,548.6,330.6,562.4,332.1z M459.5,318.5c1,4.5,2.2,9.5,3.4,14.7c0.1-2.4,0.5-4.8,1.3-7.2
						c4.2-12.3,6.6-25.2,7.1-38.2C466.6,297.4,462.1,307.9,459.5,318.5z"/>
					<linearGradient id="SVGID_15_" gradientUnits="userSpaceOnUse" x1="567.754" y1="287.745" x2="499.0295" y2="275.6976">
						<stop  offset="0" style="stop-color:#D5CDF8"/>
						<stop  offset="1" style="stop-color:#F3EDFB"/>
					</linearGradient>
					<path class="st19" d="M507.5,320.1c-10.4-20.9-26-76.4-30-91.1c-2.2,28.2,4.7,57.1,19.6,81.2
						C499.7,314.4,503,318.7,507.5,320.1z"/>
				</g>
				<linearGradient id="SVGID_16_" gradientUnits="userSpaceOnUse" x1="394.2292" y1="183.6101" x2="394.2735" y2="189.5679">
					<stop  offset="0" style="stop-color:#D5CDF8"/>
					<stop  offset="0.2527" style="stop-color:#E2DBF9"/>
					<stop  offset="0.6167" style="stop-color:#EFE8FB"/>
					<stop  offset="0.9412" style="stop-color:#F3EDFB"/>
				</linearGradient>
				<path class="st20" d="M373.4,187.5c20.6-6.7,41,0,41,0l8.7,11.2h-57.5L373.4,187.5z"/>
				<linearGradient id="SVGID_17_" gradientUnits="userSpaceOnUse" x1="394.2292" y1="183.6101" x2="394.2735" y2="189.5679">
					<stop  offset="0" style="stop-color:#B1D4F7"/>
					<stop  offset="1" style="stop-color:#637EC9"/>
				</linearGradient>
				<path class="st21" d="M373.4,187.5c20.6-6.7,41,0,41,0l8.7,11.2h-57.5L373.4,187.5z"/>
				
					<linearGradient id="SVGID_18_" gradientUnits="userSpaceOnUse" x1="393.3161" y1="150.5258" x2="392.3669" y2="278.1888" gradientTransform="matrix(-1 0 0 1 785.0637 0)">
					<stop  offset="7.717210e-02" style="stop-color:#FFC2A9"/>
					<stop  offset="0.5229" style="stop-color:#FF9595"/>
				</linearGradient>
				<path class="st22" d="M339.3,340.4c0,0-20.2-33.5-19-48c1.2-14.5,5.7-44.8,5.7-44.8l-7.3-28.9c0,0,64-27.3,63.9-29.7
					c0-2.3-1.7-19.4-1.7-19.4h26.6c0,0-1.7,17.1-1.7,19.4c0,2.3,63.9,29.7,63.9,29.7l-7.3,28.9c0,0,4.5,30.3,5.7,44.8
					c1.2,14.5-19,48-19,48l27.3,137.1H312L339.3,340.4z"/>
				<g>
					
						<linearGradient id="SVGID_19_" gradientUnits="userSpaceOnUse" x1="1940.5233" y1="211.939" x2="1993.371" y2="211.939" gradientTransform="matrix(-1 0 0 1 2361.0637 0)">
						<stop  offset="0" style="stop-color:#FF817F"/>
						<stop  offset="1" style="stop-color:#CF6074"/>
					</linearGradient>
					<path class="st23" d="M420.5,196.9c0,0-20.8,26.6-26.9,26.9c-4.8,0.2-26-27.5-26-27.5s7.9,31.3,25.8,31.3
						C410.5,227.5,420.5,196.9,420.5,196.9z"/>
					<path class="st24" d="M420.5,196.9c0,0-22.4,29.6-27,29.3c-4.9-0.3-25.8-30-25.8-30s7.9,33,25.8,32.9
						C410.5,229.2,420.5,196.9,420.5,196.9z"/>
					<linearGradient id="SVGID_20_" gradientUnits="userSpaceOnUse" x1="394.2042" y1="483.3308" x2="393.2957" y2="302.5239">
						<stop  offset="0" style="stop-color:#1F77D1"/>
						<stop  offset="1" style="stop-color:#0686C9"/>
					</linearGradient>
					<path class="st25" d="M318.9,478.3h150.6l-20.4-137.9c0,0,7.8-12.9,13.4-26.1l-6.1-76.9l8.2-14.1l-43.8-26.2
						c-0.1,0-0.2-0.1-0.3-0.1c-0.4,0.6-20.7,31.5-27,31.4c-7-0.2-23-27.2-25.5-31.5c-3.1,1.5-6.5,3-10.1,4.6
						c-8.2,4.4-19.5,10.6-25.1,14.2c-3.9,2.5-10.4,7.6-10.4,7.6l8.2,14.1l-7.2,70.7c5.4,15.1,15.9,32.4,15.9,32.4L318.9,478.3z"/>
					<path class="st26" d="M318.9,478.3h150.6l-20.4-137.9c0,0,7.8-12.9,13.4-26.1l-6.1-76.9l8.2-14.1l-43.8-26.2
						c-0.1,0-0.2-0.1-0.3-0.1c-0.4,0.6-20.7,31.5-27,31.4c-7-0.2-23-27.2-25.5-31.5c-3.1,1.5-6.5,3-10.1,4.6
						c-8.2,4.4-19.5,10.6-25.1,14.2c-3.9,2.5-10.4,7.6-10.4,7.6l8.2,14.1l-7.2,70.7c5.4,15.1,15.9,32.4,15.9,32.4L318.9,478.3z"/>
					<path class="st27" d="M469.5,478.3l-20.4-137.9c0,0,7.8-12.9,13.4-26.1l-3.3-41c-8.1-24.1-17.9-47.9-32.9-68.4
						c-0.2,27.1-7.5,53.7-18.6,78.4c-11.6-6.9-21.1-17.5-27.1-29.6c1,14.5,2.1,29,3.1,43.5c-12.2-31.6-18.1-65.7-17.3-99.6
						c-2.7,1.2-5.5,2.5-8.5,3.9c-8.2,4.4-19.5,10.6-25.1,14.2c-3.9,2.5-10.4,7.6-10.4,7.6l8.2,14.1l-7.2,70.7
						c5.4,15.1,15.9,32.4,15.9,32.4l-20.4,137.9H469.5z"/>
				</g>
				<g>
					
						<linearGradient id="SVGID_21_" gradientUnits="userSpaceOnUse" x1="446.8853" y1="305.4853" x2="557.7061" y2="318.6002" gradientTransform="matrix(-1 0 0 1 785.0637 0)">
						<stop  offset="0" style="stop-color:#D5CDF8"/>
						<stop  offset="0.2527" style="stop-color:#E2DBF9"/>
						<stop  offset="0.6167" style="stop-color:#EFE8FB"/>
						<stop  offset="0.9412" style="stop-color:#F3EDFB"/>
					</linearGradient>
					<path class="st28" d="M311.8,225.4c0,0-22.8,85.1-34.3,100.4c0,0-43.1-6-57.7,3.3s-6.3,54.1,10.2,65
						c22.4,14.8,68.1-8.6,78.2-14.3c10.1-5.7,24.7-80.9,24.7-80.9l-5.9-73.1L311.8,225.4z"/>
					
						<linearGradient id="SVGID_22_" gradientUnits="userSpaceOnUse" x1="447.023" y1="314.2847" x2="556.8494" y2="327.2819" gradientTransform="matrix(-1 0 0 1 785.0637 0)">
						<stop  offset="0" style="stop-color:#9D68C2"/>
						<stop  offset="1" style="stop-color:#CCEDFF"/>
					</linearGradient>
					<path class="st29" d="M277.5,325.8c11,0.2,30.3,18.3,31.4-2.4c1.1-20.7,12.5-81.6,12.5-81.6l8.2,14.8l3.4,42.2
						c0,0-14.6,75.2-24.7,80.9c-10.1,5.7-55.7,29.1-78.2,14.3c-13.5-8.9-21.5-40.2-16.1-56.6l21.4-11.8c0,0,14.2-0.4,28.1,17
						c13.9,17.4,3.5,43.6,3.5,43.6s21.6-5.8,28.1-21.7C301.6,348.7,277.5,325.8,277.5,325.8z"/>
					
						<linearGradient id="SVGID_23_" gradientUnits="userSpaceOnUse" x1="504.6565" y1="386.006" x2="518.4839" y2="317.8565" gradientTransform="matrix(-1 0 0 1 785.0637 0)">
						<stop  offset="0" style="stop-color:#B1D4F7"/>
						<stop  offset="1" style="stop-color:#637EC9"/>
					</linearGradient>
					<path class="st30" d="M261.1,349.7c7.7,13.6,6.1,31.7-3.7,43.9c9.6-0.7,19.1-2.6,28.2-5.6c4.6-1.5,9.3-3.5,12.7-7
						c5.8-6.1,6.3-15.5,6.4-23.9c0.5,5.8-0.3,11.8,0.2,17.6c5.2-7.3,11.5-15.4,15.7-23.7c-4.1,14.3-8.6,26.5-12.4,28.7
						c-10.1,5.7-55.7,29.1-78.2,14.3c-13.5-8.9-21.5-40.2-16.1-56.6l8.6-4.8c1.1-0.2,2.2-0.4,3.4-0.6
						C239.7,330.6,254.3,337.7,261.1,349.7z M317,287.7c0.5,13,2.8,25.9,7.1,38.2c0.8,2.4,1.2,4.8,1.3,7.2
						c1.3-5.1,2.4-10.1,3.4-14.7C326.3,307.9,321.7,297.4,317,287.7z"/>
					
						<linearGradient id="SVGID_24_" gradientUnits="userSpaceOnUse" x1="564.4601" y1="287.745" x2="495.7354" y2="275.6976" gradientTransform="matrix(-1 0 0 1 785.0637 0)">
						<stop  offset="0" style="stop-color:#D5CDF8"/>
						<stop  offset="1" style="stop-color:#F3EDFB"/>
					</linearGradient>
					<path class="st31" d="M280.8,320.1c10.4-20.9,26-76.4,30-91.1c2.2,28.2-4.7,57.1-19.6,81.2
						C288.7,314.4,285.4,318.7,280.8,320.1z"/>
				</g>
				<g>
					<g>
						
							<radialGradient id="SVGID_25_" cx="240.6867" cy="320.6322" r="40.8286" gradientTransform="matrix(-0.9785 0.2064 0.2064 0.9785 693.6312 -32.5204)" gradientUnits="userSpaceOnUse">
							<stop  offset="0" style="stop-color:#7DFFCF"/>
							<stop  offset="1" style="stop-color:#47C7F4"/>
						</radialGradient>
						<path class="st32" d="M556.2,323.3c-8.8-0.6-17.2,5.3-21.8,12.8c-4.6,7.6-6.1,16.6-6.9,25.4c-0.6,6.3-0.7,12.9,2,18.5
							c3.5,7.3,11.4,11.9,19.5,12.5c8.1,0.6,16.1-2.3,22.8-6.9c0.6-14.2,0.2-30.7-3.1-44.5c-1-4-2.1-8.1-4.4-11.5
							C561.9,326.3,560.3,323.6,556.2,323.3z"/>
						
							<linearGradient id="SVGID_26_" gradientUnits="userSpaceOnUse" x1="222.9446" y1="383.8606" x2="222.8056" y2="322.7022" gradientTransform="matrix(-0.9785 0.2064 0.2064 0.9785 693.6312 -32.5204)">
							<stop  offset="0" style="stop-color:#755CBB"/>
							<stop  offset="1" style="stop-color:#CCEDFF"/>
						</linearGradient>
						<path class="st33" d="M527.5,361.5c0.2-2.2,0.4-4.4,0.8-6.6c0.5,5,1.5,10,2.6,14.9c-0.9-4.8,0.5-9.8,2.6-14.2
							c2.1-4.4,5.1-8.3,7.6-12.5c1.9-3.1,3.7-6.3,5.2-9.7c1.3-2.9,2.5-5.9,3.6-9c0.1-0.2,0.1-0.4,0.2-0.7c2-0.5,4-0.7,6-0.6
							c4.1,0.3,5.7,3,8,6.4c2.3,3.4,3.5,7.5,4.4,11.5c3.3,13.8,3.8,30.3,3.1,44.5c-6.7,4.6-14.7,7.6-22.8,6.9
							c-8.1-0.6-16-5.2-19.5-12.5C526.8,374.4,527,367.8,527.5,361.5z"/>
						
							<linearGradient id="SVGID_27_" gradientUnits="userSpaceOnUse" x1="222.3998" y1="385.7057" x2="222.3358" y2="357.5527" gradientTransform="matrix(-0.9785 0.2064 0.2064 0.9785 693.6312 -32.5204)">
							<stop  offset="0" style="stop-color:#755CBB"/>
							<stop  offset="1" style="stop-color:#CCEDFF"/>
						</linearGradient>
						<path class="st34" d="M553.7,390.6c-9.1-5.8-15.5-15.6-17.1-26.3l10.5,3c8.3,3.3,16.6,6.5,24.9,9.8c0,2.9-0.1,5.7-0.2,8.5
							c-6.7,4.6-14.7,7.6-22.8,6.9c-4.8-0.4-9.5-2.1-13.2-5C541.5,389.7,547.6,390.7,553.7,390.6z"/>
					</g>
					<g>
						
							<radialGradient id="SVGID_28_" cx="202.8259" cy="306.9564" r="122.8474" gradientTransform="matrix(-0.9785 0.2064 0.2064 0.9785 693.6312 -32.5204)" gradientUnits="userSpaceOnUse">
							<stop  offset="0" style="stop-color:#7DFFCF"/>
							<stop  offset="1" style="stop-color:#47C7F4"/>
						</radialGradient>
						<path class="st35" d="M584.9,327.6c1.3-3.3,2.6-6.6,3.9-9.9c6.3-3.8,11.8-8.5,16.3-14.4c4.2-5.5,6.4-12.2,7.9-18.9
							c0.4-1.9-1.4-2.7-3.3-3c-1.9-0.3-3.8,0.6-5.5,1.6c-4.7,2.7-9,6.2-12.6,10.3c-3.5,4-4.9,9.9-8.8,13.5
							c-8.5,7.8-21.6,8.3-29.4,17.2c-4.1,4.6-5.4,11-6.9,17c-1.4,6-3.3,12.4-8.1,16.4c-4.2,3.6-4.8,8.4-2.4,13.4s7.2,8.4,12,11.2
							c14,8.2,29.4,13.8,45.3,16.5c2.9,0.5,2.6-0.4,4.9-2.2c2.3-1.8,3.7-4.5,5-7.1c1.3-2.6,2.7-5.3,4.8-7.2c0,0,10.2-3.5,15.1-5.2
							c2.3-0.8,4.8-1.7,6.3-3.7c2-2.6,1.8-6.3,1.4-9.6c5.2-0.1,9.5-6,11.7-10.7s3.8-10,7.8-13.3c1.4-1.1,2.9-1.9,4.3-3
							c1.4-1.1,2.7-2.5,3-4.2c0.4-1.7-0.5-3.8-2.2-4.3c1.3-1.4,2.5-3.7,3.1-5.4c0.6-1.8,0.2-4-1.4-5c-1.5-1-3.4-0.6-5.1-0.2
							c-4.6,1-9.2,2.1-13.4,4.2c-4.9,2.5-7.7,7.7-12.3,10.9c-5.2,3.6-12.5,1.6-18.4,0.6c-4-0.7-8.1-1.5-12.2-1
							C592.5,332.3,588.3,328.9,584.9,327.6z"/>
						
							<linearGradient id="SVGID_29_" gradientUnits="userSpaceOnUse" x1="231.8168" y1="415.5308" x2="133.4821" y2="313.0216" gradientTransform="matrix(-0.9785 0.2064 0.2064 0.9785 693.6312 -32.5204)">
							<stop  offset="0" style="stop-color:#755CBB"/>
							<stop  offset="1" style="stop-color:#CCEDFF"/>
						</linearGradient>
						<path class="st36" d="M551,349.6c6.1,1,12,6.6,15,11.4c3.4,5.6,6.2,13.2,10,18.5c0.4,0.6,4.4,7.2,5.4,6.5
							c3.8-2.7,12.1-1.6,12.1-1.6s3.3-5.7,8-9c4.7-3.2,12.7-3.1,12.9-1.4c0.2,1.6-2.3,5-6.2,7.8c0,0,10.2-3.5,15.1-5.2
							c2.3-0.8,4.8-1.7,6.3-3.7c2-2.6,1.8-6.3,1.4-9.6c5.2-0.1,9.5-6,11.7-10.7s3.8-10,7.8-13.3c1.4-1.1,2.9-1.9,4.3-3
							c1.4-1.1,2.7-2.5,3-4.2c0-0.1,0-0.2,0-0.3c-4.4,6.1-19.5,5.4-18.7,2.8c0.9-2.8,9.7-7.3,16.5-6.8c1.3-1.4,2.5-3.7,3.1-5.4
							c0.5-1.6,0.3-3.6-0.9-4.7c-0.2,0.6-0.4,1.2-0.7,1.8c-1.2,2-3.3,3.2-5.5,4s-4.5,1.3-6.6,2.1c-4.6,1.7-8.4,4.9-12.1,8
							c-2.9,2.6-6.9,7.7-11.1,7.5c-1.7-0.1-3.4-0.9-4.5-2.2c-1.1-1.3-1.6-3.1-1.6-4.9c-2.6-0.3-5.1-0.9-7.5-1.3
							c-4-0.7-8.1-1.5-12.2-1c-3.7,0.4-7.8-3-11.3-4.2c1.3-3.3,2.6-6.6,3.9-9.9c6.3-3.8,11.8-8.5,16.3-14.4c1.8-2.4,3.3-5,4.4-7.7
							c-4.2,6-10.3,10.7-17.3,13.1c-2,0.7-4.2,1.1-6,0c-1.2-0.7-1.9-2-2.2-3.4c-0.4,0.5-0.8,1-1.3,1.4c-3.8,3.4-8.4,5.4-13.1,7.4
							c1.3,4.9,2,10,2,15.1c0,3.5-0.3,7.1-2,10.2c-1.7,3.1-4.6,5.3-7.8,6.8S554.4,348.8,551,349.6z M618.6,361.4
							c-0.5-9.8,6-19.7,15.3-23c1.3-0.5,3.5-0.4,4.4,0.9c1.1,1.7-0.4,2.8-1.4,3.9c-0.6,0.7-1.2,1.4-1.8,2.1
							c-2.1,2.7-3.8,5.8-6.1,8.3C626.1,356.9,622.7,359.7,618.6,361.4z"/>
						
							<linearGradient id="SVGID_30_" gradientUnits="userSpaceOnUse" x1="199.2646" y1="337.7427" x2="165.1288" y2="372.6208" gradientTransform="matrix(-0.9785 0.2064 0.2064 0.9785 693.6312 -32.5204)">
							<stop  offset="0" style="stop-color:#755CBB"/>
							<stop  offset="1" style="stop-color:#CCEDFF"/>
						</linearGradient>
						<path class="st37" d="M606.6,353.9c1.5-2.5,3.1-5.4,2.7-8.3c-0.4-3.3-3.1-5.8-6-7.4c-2.9-1.6-6.2-2.5-9-4.2
							c-1.7-1-3.2-2.3-4.2-3.9c2,1,4.1,1.9,6.1,1.7c4.1-0.5,8.1,0.3,12.2,1c2.3,0.4,4.9,1,7.5,1.3c-0.1,1.8,0.4,3.5,1.6,4.9
							c1.1,1.3,2.8,2.1,4.5,2.2c0.7,0,1.4-0.1,2.1-0.4c0.5,1,1.3,1.8,2.2,2.4c-4.9,4.7-7.8,11.4-7.5,18.2c0.2-0.1-2.9,4.1-5.4,5.2
							c-2.2,1-4.7,1.1-6.9,2.3c-2.2,1.2-3.7,3.6-4.1,6.1c-0.3,0.1-0.5,0.3-0.8,0.5c-4.7,3.2-8,9-8,9s-5.9-0.7-10,0.6
							c-0.5-0.1-1-0.2-1.4-0.3C591.5,375.6,599.8,365.2,606.6,353.9z"/>
						<path class="st38" d="M592.9,384.4C592.9,384.4,592.9,384.4,592.9,384.4c0.1,0,0.2,0,0.3,0c0,0,0,0,0,0c0.1,0,0.2,0,0.2,0
							s3.3-5.7,8-9c0.2-0.2,0.5-0.3,0.8-0.5l0,0c4.8-2.7,12-2.5,12.1-1c0.1,1.1-1,2.9-2.8,4.9c0.6-1.6,1-3.2,1.1-4.9
							c-3.3,3.5-8.2,5.4-13,4.8c-2.6,1.5-4.9,4-6.1,6.8c-1-0.7-2-1.1-3.1-1.4C591.5,384.3,592.4,384.3,592.9,384.4z"/>
						<path class="st38" d="M648.9,322.1c-4.4,1.7-8.8,3.4-13.2,5.1c1.4-2.8,3.3-5.1,5.5-6.8c3.6-1.5,7.4-2.4,11.2-3.2
							c1.5-0.3,3.1-0.6,4.5-0.1C655,319.7,651.9,321,648.9,322.1z"/>
						
							<linearGradient id="SVGID_31_" gradientUnits="userSpaceOnUse" x1="108.6541" y1="344.2729" x2="127.1222" y2="344.2729" gradientTransform="matrix(-0.9785 0.2064 0.2064 0.9785 693.6312 -32.5204)">
							<stop  offset="1.598750e-02" style="stop-color:#FF9E8B"/>
							<stop  offset="1" style="stop-color:#FF7C7C"/>
						</linearGradient>
						<path class="st39" d="M640.8,332.8c3-4,8.4-6.9,17.2-8.1c-0.1,0.3-0.3,0.6-0.4,0.8c0,0.1-0.1,0.1-0.1,0.2
							c-0.1,0.2-0.2,0.4-0.4,0.6c-0.1,0.1-0.1,0.2-0.2,0.2c-0.1,0.2-0.2,0.4-0.4,0.5c-0.1,0.1-0.1,0.1-0.2,0.2
							c-0.2,0.2-0.4,0.4-0.5,0.6C650.3,327.5,643.7,330.3,640.8,332.8z"/>
						
							<linearGradient id="SVGID_32_" gradientUnits="userSpaceOnUse" x1="122.1732" y1="364.8933" x2="142.9721" y2="364.8933" gradientTransform="matrix(-0.9785 0.2064 0.2064 0.9785 693.6312 -32.5204)">
							<stop  offset="0" style="stop-color:#755CBB"/>
							<stop  offset="1" style="stop-color:#CCEDFF"/>
						</linearGradient>
						<path class="st40" d="M638.3,342.2c0,0,3,1.9,6.3,1.4c0.9-0.1,2-0.6,3.3-1.2c-2.2,3.1-3.5,6.8-5.1,10.3
							c-2.2,4.7-6.5,10.6-11.7,10.7c0,0,0.1-4.8,0.8-7.5C632.5,353.1,632.7,347.6,638.3,342.2z"/>
						
							<linearGradient id="SVGID_33_" gradientUnits="userSpaceOnUse" x1="200.1118" y1="362.8401" x2="214.3456" y2="362.8401" gradientTransform="matrix(-0.9785 0.2064 0.2064 0.9785 693.6312 -32.5204)">
							<stop  offset="0" style="stop-color:#755CBB"/>
							<stop  offset="1" style="stop-color:#CCEDFF"/>
						</linearGradient>
						<path class="st41" d="M555.5,351.1c3.4,0.5,6.6,2,8.9,4.3c4.5,4.8,6.9,11.1,9.2,17.3c0.8,2.3,1.7,4.5,2.5,6.8
							c-3.8-5.3-6.6-12.9-10-18.5C563.8,357.3,559.9,353.3,555.5,351.1z"/>
						
							<linearGradient id="SVGID_34_" gradientUnits="userSpaceOnUse" x1="153.9246" y1="365.5204" x2="189.3813" y2="365.5204" gradientTransform="matrix(-0.9785 0.2064 0.2064 0.9785 693.6312 -32.5204)">
							<stop  offset="0" style="stop-color:#755CBB"/>
							<stop  offset="1" style="stop-color:#CCEDFF"/>
						</linearGradient>
						<path class="st42" d="M611.8,341.3c-3.8,14.9-13,28-24.7,38.7C596.8,368.8,605.3,354.7,611.8,341.3z M617.5,352.4
							c-2.9,0.1-5.8,0.3-8.7,0.4C612.1,354,614.3,353.7,617.5,352.4z M614,365.9c-4.3-0.2-8.5-0.4-12.8-0.6
							C604.6,368.2,609.9,368,614,365.9z M595.4,378.3c-1.6,0-3.2,0-4.8,0.1C591.9,379.6,593.9,379.4,595.4,378.3z"/>
						<g>
							
								<linearGradient id="SVGID_35_" gradientUnits="userSpaceOnUse" x1="165.4937" y1="323.4182" x2="184.4932" y2="323.4182" gradientTransform="matrix(-0.9785 0.2064 0.2064 0.9785 693.6312 -32.5204)">
								<stop  offset="0" style="stop-color:#755CBB"/>
								<stop  offset="1" style="stop-color:#CCEDFF"/>
							</linearGradient>
							<path class="st43" d="M596.7,311.9c0.2,0,0.3-0.1,0.5-0.1c-2.6,2.2-5.4,4.2-8.3,6c-1.3,3.3-2.6,6.6-3.9,9.9l-4.1-1.1
								c0.1-3.8,2.3-8.3,5.4-10.4C589.4,314,593,312.9,596.7,311.9z"/>
						</g>
						<path class="st38" d="M608.1,293.8c-2.4,3-5.7,5.3-9.2,6.7c-3.6,1.5-7.4,2.2-11.2,2.7c1.2-5.1,3.9-9.6,7.4-13.4
							c2.8-2.6,5.8-4.8,9.1-6.7c1.7-1,3.6-1.8,5.5-1.6c1,0.1,1.9,0.4,2.6,0.9C611.7,286.5,610.2,291.2,608.1,293.8z"/>
						<path class="st38" d="M637.7,338.7c-1.7,3.1-4.2,5.8-7.3,7.6c-2.6,1.5-5.6,2.4-8.6,2.5c2.7-4.7,7-8.5,12.1-10.4
							C634.9,338,636.6,338,637.7,338.7z"/>
					</g>
				</g>
				<linearGradient id="SVGID_36_" gradientUnits="userSpaceOnUse" x1="391.7025" y1="193.1072" x2="394.1969" y2="170.1584">
					<stop  offset="0" style="stop-color:#FF817F"/>
					<stop  offset="1" style="stop-color:#CF6074"/>
				</linearGradient>
				<path class="st44" d="M382.2,183.1c8.1,1.7,16.7,0.8,24.2-2.5c0.5-5.3,1-10.9,1-10.9h-26.6C380.9,169.7,381.7,177.4,382.2,183.1
					z"/>
				<g>
					<g>
						
							<radialGradient id="SVGID_37_" cx="243.9099" cy="319.9523" r="40.8286" gradientTransform="matrix(0.9785 0.2064 -0.2064 0.9785 91.4326 -32.5204)" gradientUnits="userSpaceOnUse">
							<stop  offset="0" style="stop-color:#7DFFCF"/>
							<stop  offset="1" style="stop-color:#47C7F4"/>
						</radialGradient>
						<path class="st45" d="M232.2,323.3c8.8-0.6,17.2,5.3,21.8,12.8c4.6,7.6,6.1,16.6,6.9,25.4c0.6,6.3,0.7,12.9-2,18.5
							c-3.5,7.3-11.4,11.9-19.5,12.5c-8.1,0.6-16.1-2.3-22.8-6.9c-0.6-14.2-0.2-30.7,3.1-44.5c1-4,2.1-8.1,4.4-11.5
							C226.5,326.3,228.1,323.6,232.2,323.3z"/>
						
							<linearGradient id="SVGID_38_" gradientUnits="userSpaceOnUse" x1="226.1678" y1="383.1808" x2="226.0288" y2="322.0223" gradientTransform="matrix(0.9785 0.2064 -0.2064 0.9785 91.4326 -32.5204)">
							<stop  offset="0" style="stop-color:#755CBB"/>
							<stop  offset="1" style="stop-color:#CCEDFF"/>
						</linearGradient>
						<path class="st46" d="M260.8,361.5c-0.2-2.2-0.4-4.4-0.8-6.6c-0.5,5-1.5,10-2.6,14.9c0.9-4.8-0.5-9.8-2.6-14.2
							c-2.1-4.4-5.1-8.3-7.6-12.5c-1.9-3.1-3.7-6.3-5.2-9.7c-1.3-2.9-2.5-5.9-3.6-9c-0.1-0.2-0.1-0.4-0.2-0.7c-2-0.5-4-0.7-6-0.6
							c-4.1,0.3-5.7,3-8,6.4c-2.3,3.4-3.5,7.5-4.4,11.5c-3.3,13.8-3.8,30.3-3.1,44.5c6.7,4.6,14.7,7.6,22.8,6.9
							c8.1-0.6,16-5.2,19.5-12.5C261.6,374.4,261.4,367.8,260.8,361.5z"/>
						
							<linearGradient id="SVGID_39_" gradientUnits="userSpaceOnUse" x1="225.6229" y1="385.0258" x2="225.5589" y2="356.8729" gradientTransform="matrix(0.9785 0.2064 -0.2064 0.9785 91.4326 -32.5204)">
							<stop  offset="0" style="stop-color:#755CBB"/>
							<stop  offset="1" style="stop-color:#CCEDFF"/>
						</linearGradient>
						<path class="st47" d="M234.7,390.6c9.1-5.8,15.5-15.6,17.1-26.3l-10.5,3c-8.3,3.3-16.6,6.5-24.9,9.8c0,2.9,0.1,5.7,0.2,8.5
							c6.7,4.6,14.7,7.6,22.8,6.9c4.8-0.4,9.5-2.1,13.2-5C246.9,389.7,240.8,390.7,234.7,390.6z"/>
					</g>
					<g>
						
							<radialGradient id="SVGID_40_" cx="206.0491" cy="306.2765" r="122.8474" gradientTransform="matrix(0.9785 0.2064 -0.2064 0.9785 91.4326 -32.5204)" gradientUnits="userSpaceOnUse">
							<stop  offset="0" style="stop-color:#7DFFCF"/>
							<stop  offset="1" style="stop-color:#47C7F4"/>
						</radialGradient>
						<path class="st48" d="M203.5,327.6c-1.3-3.3-2.6-6.6-3.9-9.9c-6.3-3.8-11.8-8.5-16.3-14.4c-4.2-5.5-6.4-12.2-7.9-18.9
							c-0.4-1.9,1.4-2.7,3.3-3c1.9-0.3,3.8,0.6,5.5,1.6c4.7,2.7,9,6.2,12.6,10.3c3.5,4,4.9,9.9,8.8,13.5c8.5,7.8,21.6,8.3,29.4,17.2
							c4.1,4.6,5.4,11,6.9,17c1.4,6,3.3,12.4,8.1,16.4c4.2,3.6,4.8,8.4,2.4,13.4c-2.4,5-7.2,8.4-12,11.2
							c-14,8.2-29.4,13.8-45.3,16.5c-2.9,0.5-2.6-0.4-4.9-2.2c-2.3-1.8-3.7-4.5-5-7.1c-1.3-2.6-2.7-5.3-4.8-7.2
							c0,0-10.2-3.5-15.1-5.2c-2.3-0.8-4.8-1.7-6.3-3.7c-2-2.6-1.8-6.3-1.4-9.6c-5.2-0.1-9.5-6-11.7-10.7c-2.2-4.7-3.8-10-7.8-13.3
							c-1.4-1.1-2.9-1.9-4.3-3c-1.4-1.1-2.7-2.5-3-4.2c-0.4-1.7,0.5-3.8,2.2-4.3c-1.3-1.4-2.5-3.7-3.1-5.4s-0.2-4,1.4-5
							c1.5-1,3.4-0.6,5.1-0.2c4.6,1,9.2,2.1,13.4,4.2c4.9,2.5,7.7,7.7,12.3,10.9c5.2,3.6,12.5,1.6,18.4,0.6c4-0.7,8.1-1.5,12.2-1
							C195.9,332.3,200,328.9,203.5,327.6z"/>
						
							<linearGradient id="SVGID_41_" gradientUnits="userSpaceOnUse" x1="235.04" y1="414.8509" x2="136.7052" y2="312.3417" gradientTransform="matrix(0.9785 0.2064 -0.2064 0.9785 91.4326 -32.5204)">
							<stop  offset="0" style="stop-color:#755CBB"/>
							<stop  offset="1" style="stop-color:#CCEDFF"/>
						</linearGradient>
						<path class="st49" d="M226.4,346.2c-3.2-1.5-6.1-3.7-7.8-6.8c-1.7-3.1-2-6.7-2-10.2c0-5.1,0.7-10.2,2-15.1
							c-4.7-1.9-9.3-3.9-13.1-7.4c-0.5-0.4-0.9-0.9-1.3-1.4c-0.3,1.4-1,2.6-2.2,3.4c-1.8,1.1-4,0.6-6,0c-7-2.3-13-7.1-17.3-13.1
							c1.2,2.7,2.6,5.3,4.4,7.7c4.5,5.8,10,10.5,16.3,14.4c1.3,3.3,2.6,6.6,3.9,9.9c-3.5,1.3-7.6,4.7-11.3,4.2
							c-4.1-0.5-8.1,0.3-12.2,1c-2.3,0.4-4.9,1-7.5,1.3c0.1,1.8-0.4,3.5-1.6,4.9c-1.1,1.3-2.8,2.1-4.5,2.2c-4.2,0.2-8.2-5-11.1-7.5
							c-3.6-3.2-7.5-6.3-12.1-8c-2.2-0.8-4.5-1.2-6.6-2.1c-2.2-0.8-4.3-2.1-5.5-4c-0.3-0.5-0.6-1.2-0.7-1.8
							c-1.2,1.1-1.4,3.1-0.9,4.7c0.6,1.8,1.8,4.1,3.1,5.4c6.9-0.5,15.6,4,16.5,6.8c0.8,2.6-14.2,3.3-18.7-2.8c0,0.1,0,0.2,0,0.3
							c0.4,1.7,1.6,3.1,3,4.2c1.4,1.1,3,1.9,4.3,3c4,3.3,5.6,8.6,7.8,13.3c2.2,4.7,6.5,10.6,11.7,10.7c-0.4,3.3-0.6,7,1.4,9.6
							c1.5,2,4,2.9,6.3,3.7c4.9,1.7,15.1,5.2,15.1,5.2c-3.9-2.9-6.4-6.2-6.2-7.8c0.2-1.6,8.2-1.8,12.9,1.4c4.7,3.2,8,9,8,9
							s8.3-1,12.1,1.6c1,0.7,4.9-5.9,5.4-6.5c3.8-5.3,6.6-12.9,10-18.5c3-4.9,8.9-10.5,15-11.4C233.9,348.8,229.5,347.7,226.4,346.2
							z M159.4,353.6c-2.3-2.6-4-5.6-6.1-8.3c-0.6-0.7-1.1-1.4-1.8-2.1c-1.1-1.1-2.6-2.3-1.4-3.9c0.9-1.3,3.1-1.4,4.4-0.9
							c9.3,3.4,15.8,13.2,15.3,23C165.7,359.7,162.3,356.9,159.4,353.6z"/>
						
							<linearGradient id="SVGID_42_" gradientUnits="userSpaceOnUse" x1="202.4878" y1="337.0629" x2="168.3519" y2="371.9409" gradientTransform="matrix(0.9785 0.2064 -0.2064 0.9785 91.4326 -32.5204)">
							<stop  offset="0" style="stop-color:#755CBB"/>
							<stop  offset="1" style="stop-color:#CCEDFF"/>
						</linearGradient>
						<path class="st50" d="M181.7,353.9c-1.5-2.5-3.1-5.4-2.7-8.3c0.4-3.3,3.1-5.8,6-7.4c2.9-1.6,6.2-2.5,9-4.2
							c1.7-1,3.2-2.3,4.2-3.9c-2,1-4.1,1.9-6.1,1.7c-4.1-0.5-8.1,0.3-12.2,1c-2.3,0.4-4.9,1-7.5,1.3c0.1,1.8-0.4,3.5-1.6,4.9
							c-1.1,1.3-2.8,2.1-4.5,2.2c-0.7,0-1.4-0.1-2.1-0.4c-0.5,1-1.3,1.8-2.2,2.4c4.9,4.7,7.8,11.4,7.5,18.2
							c-0.2-0.1,2.9,4.1,5.4,5.2c2.2,1,4.7,1.1,6.9,2.3c2.2,1.2,3.7,3.6,4.1,6.1c0.3,0.1,0.5,0.3,0.8,0.5c4.7,3.2,8,9,8,9
							s5.9-0.7,10,0.6c0.5-0.1,1-0.2,1.4-0.3C196.8,375.6,188.5,365.2,181.7,353.9z"/>
						<path class="st38" d="M195.4,384.4C195.4,384.4,195.4,384.4,195.4,384.4c-0.1,0-0.2,0-0.3,0c0,0,0,0,0,0c-0.1,0-0.2,0-0.2,0
							s-3.3-5.7-8-9c-0.2-0.2-0.5-0.3-0.8-0.5l0,0c-4.8-2.7-12-2.5-12.1-1c-0.1,1.1,1,2.9,2.8,4.9c-0.6-1.6-1-3.2-1.1-4.9
							c3.3,3.5,8.2,5.4,13,4.8c2.6,1.5,4.9,4,6.1,6.8c1-0.7,2-1.1,3.1-1.4C196.8,384.3,196,384.3,195.4,384.4z"/>
						<path class="st38" d="M139.5,322.1c4.4,1.7,8.8,3.4,13.2,5.1c-1.4-2.8-3.3-5.1-5.5-6.8c-3.6-1.5-7.4-2.4-11.2-3.2
							c-1.5-0.3-3.1-0.6-4.5-0.1C133.3,319.7,136.5,321,139.5,322.1z"/>
						
							<linearGradient id="SVGID_43_" gradientUnits="userSpaceOnUse" x1="111.8773" y1="343.5931" x2="130.3453" y2="343.5931" gradientTransform="matrix(0.9785 0.2064 -0.2064 0.9785 91.4326 -32.5204)">
							<stop  offset="1.598750e-02" style="stop-color:#FF9E8B"/>
							<stop  offset="1" style="stop-color:#FF7C7C"/>
						</linearGradient>
						<path class="st51" d="M147.6,332.8c-3-4-8.4-6.9-17.2-8.1c0.1,0.3,0.3,0.6,0.4,0.8c0,0.1,0.1,0.1,0.1,0.2
							c0.1,0.2,0.2,0.4,0.4,0.6c0.1,0.1,0.1,0.2,0.2,0.2c0.1,0.2,0.2,0.4,0.4,0.5c0.1,0.1,0.1,0.1,0.2,0.2c0.2,0.2,0.4,0.4,0.5,0.6
							C138,327.5,144.6,330.3,147.6,332.8z"/>
						
							<linearGradient id="SVGID_44_" gradientUnits="userSpaceOnUse" x1="125.3964" y1="364.2135" x2="146.1953" y2="364.2135" gradientTransform="matrix(0.9785 0.2064 -0.2064 0.9785 91.4326 -32.5204)">
							<stop  offset="0" style="stop-color:#755CBB"/>
							<stop  offset="1" style="stop-color:#CCEDFF"/>
						</linearGradient>
						<path class="st52" d="M150.1,342.2c0,0-3,1.9-6.3,1.4c-0.9-0.1-2-0.6-3.3-1.2c2.2,3.1,3.5,6.8,5.1,10.3
							c2.2,4.7,6.5,10.6,11.7,10.7c0,0-0.1-4.8-0.8-7.5C155.8,353.1,155.7,347.6,150.1,342.2z"/>
						
							<linearGradient id="SVGID_45_" gradientUnits="userSpaceOnUse" x1="203.335" y1="362.1602" x2="217.5688" y2="362.1602" gradientTransform="matrix(0.9785 0.2064 -0.2064 0.9785 91.4326 -32.5204)">
							<stop  offset="0" style="stop-color:#755CBB"/>
							<stop  offset="1" style="stop-color:#CCEDFF"/>
						</linearGradient>
						<path class="st53" d="M232.9,351.1c-3.4,0.5-6.6,2-8.9,4.3c-4.5,4.8-6.9,11.1-9.2,17.3c-0.8,2.3-1.7,4.5-2.5,6.8
							c3.8-5.3,6.6-12.9,10-18.5C224.6,357.3,228.5,353.3,232.9,351.1z"/>
						
							<linearGradient id="SVGID_46_" gradientUnits="userSpaceOnUse" x1="157.1477" y1="364.8405" x2="192.6045" y2="364.8405" gradientTransform="matrix(0.9785 0.2064 -0.2064 0.9785 91.4326 -32.5204)">
							<stop  offset="0" style="stop-color:#755CBB"/>
							<stop  offset="1" style="stop-color:#CCEDFF"/>
						</linearGradient>
						<path class="st54" d="M201.3,380c-11.7-10.7-20.8-23.7-24.7-38.7C183,354.7,191.5,368.8,201.3,380z M179.5,352.8
							c-2.9-0.1-5.8-0.3-8.7-0.4C174.1,353.7,176.3,354,179.5,352.8z M187.2,365.3c-4.3,0.2-8.5,0.4-12.8,0.6
							C178.4,368,183.7,368.2,187.2,365.3z M197.8,378.4c-1.6,0-3.2,0-4.8-0.1C194.5,379.4,196.4,379.6,197.8,378.4z"/>
						<g>
							
								<linearGradient id="SVGID_47_" gradientUnits="userSpaceOnUse" x1="168.7169" y1="322.7383" x2="187.7164" y2="322.7383" gradientTransform="matrix(0.9785 0.2064 -0.2064 0.9785 91.4326 -32.5204)">
								<stop  offset="0" style="stop-color:#755CBB"/>
								<stop  offset="1" style="stop-color:#CCEDFF"/>
							</linearGradient>
							<path class="st55" d="M191.7,311.9c-0.2,0-0.3-0.1-0.5-0.1c2.6,2.2,5.4,4.2,8.3,6c1.3,3.3,2.6,6.6,3.9,9.9l4.1-1.1
								c-0.1-3.8-2.3-8.3-5.4-10.4C199,314,195.3,312.9,191.7,311.9z"/>
						</g>
						<path class="st38" d="M180.2,293.8c2.4,3,5.7,5.3,9.2,6.7c3.6,1.5,7.4,2.2,11.2,2.7c-1.2-5.1-3.9-9.6-7.4-13.4
							c-2.8-2.6-5.8-4.8-9.1-6.7c-1.7-1-3.6-1.8-5.5-1.6c-1,0.1-1.9,0.4-2.6,0.9C176.7,286.5,178.2,291.2,180.2,293.8z"/>
						<path class="st38" d="M150.7,338.7c1.7,3.1,4.2,5.8,7.3,7.6c2.6,1.5,5.6,2.4,8.6,2.5c-2.7-4.7-7-8.5-12.1-10.4
							C153.4,338,151.7,338,150.7,338.7z"/>
					</g>
				</g>
				<g>
					<g>
						
							<linearGradient id="SVGID_48_" gradientUnits="userSpaceOnUse" x1="2239.6899" y1="356.5768" x2="2281.085" y2="152.5591" gradientTransform="matrix(-1 1.100000e-03 1.100000e-03 1 2689.8354 -1.4591)">
							<stop  offset="0" style="stop-color:#D5CDF8"/>
							<stop  offset="1" style="stop-color:#F3EDFB"/>
						</linearGradient>
						<path class="st56" d="M415.5,481.3l68.4-0.1c-7.2-34.5-25-107.6-32.1-141.8c0,0,19.3-36.2,20.5-48.7
							c1.2-12.5-5.3-48.9-5.3-48.9l9.6-16.4c0,0,15,1.6,1.2-6c-11.3-6.3-51.9-21.1-51.9-21.1s8,49.5-3.1,81.6
							c-11.1,32.2-22.4,53.7-22.4,53.7l0,0C405.8,382.7,410,432.3,415.5,481.3z"/>
						<linearGradient id="SVGID_49_" gradientUnits="userSpaceOnUse" x1="431.8436" y1="468.2663" x2="461.7342" y2="320.9483">
							<stop  offset="0" style="stop-color:#9D68C2"/>
							<stop  offset="1" style="stop-color:#CCEDFF"/>
						</linearGradient>
						<path class="st57" d="M407.5,404.3c1.5,15.6,3,31.1,4.6,46.6c0,0,0,0.1,0,0.1l3.2,30.2h68.4c-7.2-34.5-24.9-107.6-32-141.8
							c0,0,19.4-36.2,20.6-48.7c0-0.4,0.1-0.8,0.1-1.2c0-0.1,0-0.3,0-0.4c0-0.3,0-0.6,0-0.9c0-0.2,0-0.4,0-0.6c0-0.3,0-0.5,0-0.8
							c0-0.2,0-0.5,0-0.7c0-0.2,0-0.5,0-0.7c0-0.3,0-0.5,0-0.8c0-0.2,0-0.4,0-0.6c0-0.3,0-0.6,0-1c0,0,0,0,0,0c0-1-0.1-1.9-0.2-3
							c0,0,0-0.1,0-0.1c-8.3,12.6-34,47.2-67.4,52.8l2.7,71.3C407.5,404.2,407.5,404.3,407.5,404.3z"/>
						<linearGradient id="SVGID_50_" gradientUnits="userSpaceOnUse" x1="398.1621" y1="372.9255" x2="471.4452" y2="476.5745">
							<stop  offset="0" style="stop-color:#9D68C2"/>
							<stop  offset="0.8391" style="stop-color:#CCEDFF"/>
						</linearGradient>
						<path class="st58" d="M437.6,481.3h-22.3l-3.2-30.2c0,0,0-0.1,0-0.1c-0.5-5.2-1.1-10.5-1.6-15.7
							C417.7,451.6,426.8,467.1,437.6,481.3z M406.1,368c11.2,7.4,22.4,14.7,33.6,22.1c7.7,5.1,15.5,10.3,21,17.7
							c9,12.3,9.8,29,5.9,43.7c-2.8,10.6-7.8,20.3-13.4,29.8h30.6c-5.1-24.8-15.7-69.3-23.9-105.1L406,364.9L406.1,368z"/>
						
							<linearGradient id="SVGID_51_" gradientUnits="userSpaceOnUse" x1="2238.594" y1="470.3353" x2="2248.7126" y2="420.4642" gradientTransform="matrix(-1 0 0 1 2689.8572 0)">
							<stop  offset="0" style="stop-color:#9D68C2"/>
							<stop  offset="0.8391" style="stop-color:#CCEDFF"/>
						</linearGradient>
						<path class="st59" d="M423.5,427.9c12.6-1,25-4.4,36.4-10c0,0,5.7,38.7-10.6,43.7S423.5,427.9,423.5,427.9z"/>
						<linearGradient id="SVGID_52_" gradientUnits="userSpaceOnUse" x1="437.0546" y1="360.4462" x2="446.6581" y2="313.1145">
							<stop  offset="0" style="stop-color:#B1D4F7"/>
							<stop  offset="1" style="stop-color:#637EC9"/>
						</linearGradient>
						<path class="st60" d="M451.8,339.5C451.8,339.5,451.8,339.5,451.8,339.5c0,0,10.8-20.3,16.8-35.7c0,0,0,0,0,0
							c-16.1,25.1-51.8,58-51.8,58S444.2,348.8,451.8,339.5z"/>
						
							<linearGradient id="SVGID_53_" gradientUnits="userSpaceOnUse" x1="2248.4685" y1="260.5363" x2="2295.1191" y2="260.5363" gradientTransform="matrix(-1 0 0 1 2689.8572 0)">
							<stop  offset="0" style="stop-color:#FFFFFF"/>
							<stop  offset="1" style="stop-color:#F3EDFB"/>
						</linearGradient>
						<path class="st61" d="M423.4,230.3c0.8-14.9,0-31-9-42.8c0,0,33.5,23.9,32.6,30.2c-0.9,6.3-14.5,9.1-14.5,9.1
							s15,10.5,9.3,29.6c-5.7,19.2-41.4,77.1-41.4,77.1C414.7,301,421.6,265.9,423.4,230.3z"/>
						<g>
							<path class="st4" d="M409.9,308.3c8-25.2,12.2-51.5,13.5-78c0.4-7.5,0.4-15.4-0.9-22.8C428.5,231.6,426.3,257.7,409.9,308.3z
								"/>
							<path class="st4" d="M409.2,310.4c-0.3,1-0.6,2-1,3c-0.2,0.6-0.4,1.1-0.6,1.6C408.2,313.4,408.7,311.9,409.2,310.4z"/>
							<path class="st4" d="M407.6,315c-0.4,1.3-0.9,2.5-1.3,3.6C406.8,317.4,407.2,316.2,407.6,315z"/>
						</g>
						
							<linearGradient id="SVGID_54_" gradientUnits="userSpaceOnUse" x1="2244.1604" y1="409.1411" x2="2250.6045" y2="431.1268" gradientTransform="matrix(-1 0 0 1 2689.8572 0)">
							<stop  offset="0" style="stop-color:#B1D4F7"/>
							<stop  offset="1" style="stop-color:#637EC9"/>
						</linearGradient>
						<path class="st62" d="M459.8,418c-11.4,5.6-23.8,9-36.4,10L459.8,418z"/>
					</g>
				</g>
				<g>
					<linearGradient id="SVGID_55_" gradientUnits="userSpaceOnUse" x1="316.2747" y1="460.9658" x2="357.6695" y2="256.9479">
						<stop  offset="0" style="stop-color:#D5CDF8"/>
						<stop  offset="1" style="stop-color:#F3EDFB"/>
					</linearGradient>
					<path class="st63" d="M311.1,225.4l9.6,16.4c0,0-6.5,36.4-5.3,48.9c1.2,12.5,20.6,48.7,20.6,48.7
						c-7.1,34.2-24.8,107.3-32,141.8h68.4c5.4-49.1,9.6-98.7,15-147.7l0,0c0,0-11.4-21.5-22.5-53.7c-11.1-32.2-3.2-81.6-3.2-81.6
						s-40.6,14.8-51.9,21.1C296.1,227.1,311.1,225.4,311.1,225.4z"/>
					<linearGradient id="SVGID_56_" gradientUnits="userSpaceOnUse" x1="332.5612" y1="429.805" x2="354.8261" y2="320.0703">
						<stop  offset="0" style="stop-color:#9D68C2"/>
						<stop  offset="1" style="stop-color:#CCEDFF"/>
					</linearGradient>
					<path class="st64" d="M383,332.9c-33.4-5.6-59.1-40.2-67.4-52.8c-0.3,4.3-0.4,8-0.1,10.7c1.2,12.5,20.6,48.7,20.6,48.7v0
						l33.6,68.5l6,43.1c0,0,0,0,0,0c1.6-15.5,3.1-31.1,4.6-46.7c0-0.1,0-0.1,0-0.2L383,332.9z"/>
					<linearGradient id="SVGID_57_" gradientUnits="userSpaceOnUse" x1="336.5045" y1="470.3353" x2="346.6233" y2="420.4642">
						<stop  offset="0" style="stop-color:#9D68C2"/>
						<stop  offset="0.8391" style="stop-color:#CCEDFF"/>
					</linearGradient>
					<path class="st65" d="M364.3,427.9c-12.6-1-25-4.4-36.4-10c0,0-5.7,38.7,10.6,43.7C354.8,466.7,364.3,427.9,364.3,427.9z"/>
					<linearGradient id="SVGID_58_" gradientUnits="userSpaceOnUse" x1="341.1964" y1="351.9427" x2="347.8523" y2="319.139">
						<stop  offset="0" style="stop-color:#B1D4F7"/>
						<stop  offset="1" style="stop-color:#637EC9"/>
					</linearGradient>
					<path class="st66" d="M319.2,303.8C319.2,303.8,319.2,303.8,319.2,303.8c6,15.4,16.8,35.7,16.8,35.7l0,0l0,0l0,0c0,0,0,0,0,0
						c7.5,9.3,35,22.3,35,22.3S335.3,328.9,319.2,303.8z"/>
					<linearGradient id="SVGID_59_" gradientUnits="userSpaceOnUse" x1="346.3792" y1="260.5363" x2="393.0298" y2="260.5363">
						<stop  offset="0" style="stop-color:#FFFFFF"/>
						<stop  offset="1" style="stop-color:#F3EDFB"/>
					</linearGradient>
					<path class="st67" d="M364.4,230.3c-0.8-14.9,0-31,9-42.8c0,0-33.5,23.9-32.6,30.2c0.9,6.3,14.5,9.1,14.5,9.1
						s-15,10.5-9.3,29.6c5.7,19.2,41.4,77.1,41.4,77.1C373,301,366.2,265.9,364.4,230.3z"/>
					<g>
						<path class="st4" d="M377.9,308.3c-8-25.2-12.2-51.5-13.5-78c-0.4-7.5-0.4-15.4,0.9-22.8C359.3,231.6,361.4,257.7,377.9,308.3
							z"/>
						<path class="st4" d="M378.6,310.4c0.3,1,0.6,2,1,3c0.2,0.6,0.4,1.1,0.6,1.6C379.6,313.4,379.1,311.9,378.6,310.4z"/>
						<path class="st4" d="M380.1,315c0.4,1.3,0.9,2.5,1.3,3.6C381,317.4,380.6,316.2,380.1,315z"/>
					</g>
					<linearGradient id="SVGID_60_" gradientUnits="userSpaceOnUse" x1="342.0712" y1="409.1411" x2="348.5153" y2="431.1268">
						<stop  offset="0" style="stop-color:#B1D4F7"/>
						<stop  offset="1" style="stop-color:#637EC9"/>
					</linearGradient>
					<path class="st68" d="M327.9,418c11.4,5.6,23.8,9,36.4,10L327.9,418z"/>
				</g>
				<g>
					<path class="st69" d="M428.4,117.4c-0.6,0.2-1.2,0.7-1.4,1.3c0.6-0.1,1.1-0.4,1.4-0.9c0.1-0.1,0.2-0.3,0.3-0.5
						C428.6,117.4,428.5,117.4,428.4,117.4z M428.4,116.1c-0.6,0.2-1.1,0.8-1.3,1.4c0.6-0.2,1-0.6,1.3-1.1c0.1-0.1,0.2-0.3,0.3-0.4
						C428.6,116,428.5,116,428.4,116.1z"/>
					<path class="st69" d="M359.9,117.4c-0.1,0-0.2-0.1-0.3-0.1c0.1,0.2,0.2,0.3,0.3,0.5c0.3,0.5,0.8,0.8,1.4,0.9
						C361.1,118.2,360.6,117.7,359.9,117.4z M360,116.1c-0.1,0-0.2-0.1-0.3-0.1c0.1,0.1,0.2,0.3,0.3,0.4c0.3,0.5,0.8,0.9,1.3,1.1
						C361.1,116.8,360.6,116.3,360,116.1z"/>
					<g>
						
							<linearGradient id="SVGID_61_" gradientUnits="userSpaceOnUse" x1="2238.082" y1="130.3652" x2="2252.187" y2="116.8079" gradientTransform="matrix(-1 0 0 1 2689.8572 0)">
							<stop  offset="1.598750e-02" style="stop-color:#FFAC8B"/>
							<stop  offset="1" style="stop-color:#FF9595"/>
						</linearGradient>
						<path class="st70" d="M435.2,113.3c0,0,6.7-11.9,16.4-5.1c9.7,6.8-1,31.6-11.6,31.1c-5.3-0.2-7.2-8.1-7.2-8.1L435.2,113.3z"/>
						
							<linearGradient id="SVGID_62_" gradientUnits="userSpaceOnUse" x1="2239.0444" y1="125.249" x2="2251.5696" y2="125.249" gradientTransform="matrix(-1 0 0 1 2689.8572 0)">
							<stop  offset="0" style="stop-color:#FF817F"/>
							<stop  offset="1" style="stop-color:#CF6074"/>
						</linearGradient>
						<path class="st71" d="M450.8,115.3c-6.4,2.2-11.6,8.2-12.5,15c-0.1,1.2,0,2.4,0.6,3.4c0.6,1,1.8,1.6,3,1.4
							c1.6-0.3,2.5-2.1,2.9-3.7c0.7-2.8,0.7-5.7,0-8.4C446.2,120.6,448.6,117,450.8,115.3z"/>
						<linearGradient id="SVGID_63_" gradientUnits="userSpaceOnUse" x1="444.7786" y1="127.492" x2="444.8981" y2="112.6071">
							<stop  offset="0" style="stop-color:#CF6074"/>
							<stop  offset="1" style="stop-color:#FF817F"/>
						</linearGradient>
						<path class="st72" d="M435.1,113.9l-0.8,5.8l1,1.3c5.8,3.5,13.4,3.7,19.5,0.8c0.8-3.7,0.8-7.3-0.4-10.1
							C448,110.4,441.1,111.2,435.1,113.9z"/>
						
							<linearGradient id="SVGID_64_" gradientUnits="userSpaceOnUse" x1="2250.6643" y1="116.7482" x2="2243.2891" y2="110.0558" gradientTransform="matrix(-1 0 0 1 2689.8572 0)">
							<stop  offset="0" style="stop-color:#FFA795"/>
							<stop  offset="0.984" style="stop-color:#FFC2A9"/>
						</linearGradient>
						<path class="st73" d="M435.2,113.3c0,0,6.7-11.9,16.4-5.1c1.2,0.8,2,1.9,2.6,3.1c-2.1-0.8-4.3-1.2-6.5-1.1
							c-4.4,0.2-8.5,1.7-12.6,3.6L435.2,113.3z"/>
					</g>
					<g>
						<linearGradient id="SVGID_65_" gradientUnits="userSpaceOnUse" x1="336.5828" y1="130.3652" x2="350.6878" y2="116.8079">
							<stop  offset="1.598750e-02" style="stop-color:#FFAC8B"/>
							<stop  offset="1" style="stop-color:#FF9595"/>
						</linearGradient>
						<path class="st74" d="M353.2,113.3c0,0-6.7-11.9-16.4-5.1c-9.7,6.8,1,31.6,11.6,31.1c5.3-0.2,7.2-8.1,7.2-8.1L353.2,113.3z"/>
						<linearGradient id="SVGID_66_" gradientUnits="userSpaceOnUse" x1="337.5452" y1="125.249" x2="350.0703" y2="125.249">
							<stop  offset="0" style="stop-color:#FF817F"/>
							<stop  offset="1" style="stop-color:#CF6074"/>
						</linearGradient>
						<path class="st75" d="M337.5,115.3c6.4,2.2,11.6,8.2,12.5,15c0.1,1.2,0,2.4-0.6,3.4c-0.6,1-1.8,1.6-3,1.4
							c-1.6-0.3-2.5-2.1-2.9-3.7c-0.7-2.8-0.7-5.7,0-8.4C342.2,120.6,339.7,117,337.5,115.3z"/>
						<linearGradient id="SVGID_67_" gradientUnits="userSpaceOnUse" x1="349.1651" y1="116.7482" x2="341.7898" y2="110.0558">
							<stop  offset="0" style="stop-color:#FFA795"/>
							<stop  offset="0.984" style="stop-color:#FFC2A9"/>
						</linearGradient>
						<path class="st76" d="M353.2,113.3c0,0-6.7-11.9-16.4-5.1c-1.2,0.8-2,1.9-2.6,3.1c2.1-0.8,4.3-1.2,6.5-1.1
							c4.4,0.2,8.5,1.7,12.6,3.6L353.2,113.3z"/>
					</g>
					<linearGradient id="SVGID_68_" gradientUnits="userSpaceOnUse" x1="394.179" y1="177.5269" x2="394.179" y2="65.8815">
						<stop  offset="1.598750e-02" style="stop-color:#FFC2A9"/>
						<stop  offset="1" style="stop-color:#FF9595"/>
					</linearGradient>
					<path class="st77" d="M394.2,47.9c38.2,0,48.1,41.8,48.1,41.8s-5.4,53.9-10.6,63.6c-1.6,2.9-15.1,25.1-37.5,25.1h0
						c-22.4,0-35.9-22.2-37.5-25.1c-5.3-9.8-10.6-63.6-10.6-63.6S355.9,47.9,394.2,47.9L394.2,47.9z"/>
					<linearGradient id="SVGID_69_" gradientUnits="userSpaceOnUse" x1="397.5063" y1="149.9613" x2="398.2496" y2="57.4116">
						<stop  offset="0" style="stop-color:#CF6074"/>
						<stop  offset="1" style="stop-color:#FF817F"/>
					</linearGradient>
					<path class="st78" d="M394.2,47.9L394.2,47.9c-21,0-33.4,12.5-40.4,23.9l2.9,8.1c5.5-2,12-2.1,17.7-0.7
						c2.9-2.9,7.2-3.9,11.4-3.5c4.1,0.4,8,2.8,10.2,6.3c2.3,3.5,3.1,8.1,6.6,10.4c2.9,1.9,6.6,1.5,10.1,1.5s7.5,0.9,8.9,4.1
						c-1.2-4.1-4.7-7.3-8.8-8.3c7.6,0,14.9,5.5,17.2,12.8c1.3,4.3,1,8.9,1.5,13.4c0.5,4.5,2.1,9.3,6,11.6c0.1,0,0.1,0.1,0.2,0.1
						c2.7-17.8,4.7-37.8,4.7-37.8S432.4,47.9,394.2,47.9z"/>
					<linearGradient id="SVGID_70_" gradientUnits="userSpaceOnUse" x1="378.0108" y1="79.1764" x2="380.936" y2="55.336">
						<stop  offset="0" style="stop-color:#5A1E8A"/>
						<stop  offset="1" style="stop-color:#5241B8"/>
					</linearGradient>
					<path class="st79" d="M353.2,78.6c8.6-8.1,18.2-2.2,21.2,0.6c0,0,16.7-15.7,24.8-6.5c8.1,9.2,5.9-20.8-10.1-18.6
						C373.3,56.4,353.2,78.6,353.2,78.6z"/>
					<g>
						
							<linearGradient id="SVGID_71_" gradientUnits="userSpaceOnUse" x1="2316.2869" y1="129.4648" x2="2317.4429" y2="98.0852" gradientTransform="matrix(-1 0 0 1 2689.8572 0)">
							<stop  offset="1.598750e-02" style="stop-color:#FFA58B"/>
							<stop  offset="1" style="stop-color:#FF9595"/>
						</linearGradient>
						<path class="st80" d="M386.9,96.4c0,0-0.3,27.4-1.9,34.2c0,0-18.9,1.7-23.5-4.4c-4.6-6.1-3.7-13.7,0.9-21.9l4.4-3.7
							L386.9,96.4z"/>
						<path class="st69" d="M386.9,96.4c-9.5-2.2-18.7,0.2-24.4,7.9c4.2-2.4,8.7-3.8,13.9-4.3c2.3-0.2,6.8,1.5,8.8,0.6
							C387.2,99.6,387,98.5,386.9,96.4z"/>
						
							<linearGradient id="SVGID_72_" gradientUnits="userSpaceOnUse" x1="2305.5618" y1="113.4408" x2="2328.9768" y2="113.4408" gradientTransform="matrix(-1 0 0 1 2689.8572 0)">
							<stop  offset="0" style="stop-color:#CF6074"/>
							<stop  offset="1" style="stop-color:#FF817F"/>
						</linearGradient>
						<path class="st81" d="M384.3,121.1c0,0-2-11.2-9.2-14.3c-6.7-2.9-12.3,1.6-14.2,5.3c0,0,5-4.4,12.8-2.9
							C381.6,110.7,384.3,121.1,384.3,121.1z"/>
						<path class="st69" d="M364.6,127.5c1.4,1.1,3.2,1.8,5,2.1c1.8,0.3,3.7,0.3,5.6,0.2c-0.6,0-1.4-0.4-2-0.6
							c-0.7-0.2-1.3-0.5-2-0.7c-1.3-0.5-2.5-1.1-3.7-1.8c-1.2-0.7-2.4-1.5-3.4-2.3c-0.4-0.3-0.9-0.9-1.5-1.1
							c-0.7-0.2-0.6,0.3-0.4,0.7C362.6,125.4,363.4,126.6,364.6,127.5z"/>
						<path class="st82" d="M361.4,113.6c3.1-4.7,11.8-5.6,17.6-0.9c5.8,4.8,6.4,11.5,5.1,13.6c-1.3,2.1-12.5,7.3-20.1-0.3
							C360.2,122.1,359.6,116.3,361.4,113.6z"/>
						
							<linearGradient id="SVGID_73_" gradientUnits="userSpaceOnUse" x1="2315.2034" y1="126.7096" x2="2316.6907" y2="108.2026" gradientTransform="matrix(-1 0 0 1 2689.8572 0)">
							<stop  offset="0" style="stop-color:#8642A0"/>
							<stop  offset="1" style="stop-color:#6456C0"/>
						</linearGradient>
						<circle class="st83" cx="374" cy="118.5" r="7.8"/>
						
							<linearGradient id="SVGID_74_" gradientUnits="userSpaceOnUse" x1="394.7824" y1="118.4627" x2="405.5898" y2="118.4627" gradientTransform="matrix(1 0 0 1 -26.195 0)">
							<stop  offset="0" style="stop-color:#20206C"/>
							<stop  offset="1" style="stop-color:#362283"/>
						</linearGradient>
						<path class="st84" d="M379.4,118.5c0,3-2.4,5.4-5.4,5.4s-5.4-2.4-5.4-5.4c0-3,2.4-5.4,5.4-5.4S379.4,115.5,379.4,118.5z"/>
						<path class="st4" d="M377.5,114.2c0,0-0.1,0-0.2,0c-0.9,0.1-1.5,0.8-1.5,1.7c0,0.9,0.8,1.7,1.7,1.7c0.7,0,1.3-0.4,1.6-1.1
							c0.1-0.2,0.1-0.4,0.1-0.6C379.1,115,378.4,114.2,377.5,114.2z M371.5,121.7c-0.4-0.3-1-0.1-1.6,0.3c-0.6,0.4-1.3,1.1-1.7,1.8
							c-0.4,0.7-0.6,1.3-0.3,1.6c0.4,0.5,1.2,0.2,1.9-0.3c0.6-0.5,1.3-1.2,1.6-1.9C371.9,122.6,371.9,122,371.5,121.7z"/>
						<path class="st69" d="M384.5,121.5c0,0-1.8-11-10.7-13.5c-10.2-2.9-14,5.7-14,5.7l-2.2-1.1c0,0,1.5,2.9,2.8,3.9
							c0,0,2.9-7,9.6-7C380.5,109.6,384.5,121.5,384.5,121.5z"/>
					</g>
					<g>
						
							<linearGradient id="SVGID_75_" gradientUnits="userSpaceOnUse" x1="2319.5811" y1="129.4648" x2="2320.7371" y2="98.0852" gradientTransform="matrix(1 0 0 1 -1904.7935 0)">
							<stop  offset="1.598750e-02" style="stop-color:#FFA58B"/>
							<stop  offset="1" style="stop-color:#FF9595"/>
						</linearGradient>
						<path class="st85" d="M401.5,96.4c0,0,0.3,27.4,1.9,34.2c0,0,18.9,1.7,23.5-4.4c4.6-6.1,3.7-13.7-0.9-21.9l-4.4-3.7
							L401.5,96.4z"/>
						<path class="st69" d="M401.5,96.4c9.5-2.2,18.7,0.2,24.4,7.9c-4.2-2.4-8.7-3.8-13.9-4.3c-2.3-0.2-6.8,1.5-8.8,0.6
							C401.2,99.6,401.3,98.5,401.5,96.4z"/>
						
							<linearGradient id="SVGID_76_" gradientUnits="userSpaceOnUse" x1="2308.856" y1="113.4408" x2="2332.271" y2="113.4408" gradientTransform="matrix(1 0 0 1 -1904.7935 0)">
							<stop  offset="0" style="stop-color:#CF6074"/>
							<stop  offset="1" style="stop-color:#FF817F"/>
						</linearGradient>
						<path class="st86" d="M404.1,121.1c0,0,2-11.2,9.2-14.3c6.7-2.9,12.3,1.6,14.2,5.3c0,0-5-4.4-12.8-2.9
							C406.8,110.7,404.1,121.1,404.1,121.1z"/>
						<path class="st69" d="M423.8,127.5c-1.4,1.1-3.2,1.8-5,2.1c-1.8,0.3-3.7,0.3-5.6,0.2c0.6,0,1.4-0.4,2-0.6
							c0.7-0.2,1.3-0.5,2-0.7c1.3-0.5,2.5-1.1,3.7-1.8c1.2-0.7,2.4-1.5,3.4-2.3c0.4-0.3,0.9-0.9,1.5-1.1c0.7-0.2,0.6,0.3,0.4,0.7
							C425.8,125.4,424.9,126.6,423.8,127.5z"/>
						<path class="st82" d="M426.9,113.6c-3.1-4.7-11.8-5.6-17.6-0.9c-5.8,4.8-6.4,11.5-5.1,13.6c1.3,2.1,12.5,7.3,20.1-0.3
							C428.2,122.1,428.7,116.3,426.9,113.6z"/>
						
							<linearGradient id="SVGID_77_" gradientUnits="userSpaceOnUse" x1="2318.4976" y1="126.7096" x2="2319.9849" y2="108.2026" gradientTransform="matrix(1 0 0 1 -1904.7935 0)">
							<stop  offset="0" style="stop-color:#8642A0"/>
							<stop  offset="1" style="stop-color:#6456C0"/>
						</linearGradient>
						<circle class="st87" cx="414.4" cy="118.5" r="7.8"/>
						
							<linearGradient id="SVGID_78_" gradientUnits="userSpaceOnUse" x1="391.4882" y1="118.4627" x2="402.2956" y2="118.4627" gradientTransform="matrix(-1 0 0 1 811.2587 0)">
							<stop  offset="0" style="stop-color:#20206C"/>
							<stop  offset="1" style="stop-color:#362283"/>
						</linearGradient>
						<path class="st88" d="M409,118.5c0,3,2.4,5.4,5.4,5.4s5.4-2.4,5.4-5.4c0-3-2.4-5.4-5.4-5.4S409,115.5,409,118.5z"/>
						<path class="st4" d="M409.2,115.9c0,0.2,0,0.4,0.1,0.6c0.2,0.6,0.9,1.1,1.6,1.1c0.9,0,1.7-0.8,1.7-1.7c0-0.9-0.7-1.6-1.5-1.7
							c0,0-0.1,0-0.2,0C410,114.2,409.2,115,409.2,115.9z M416.8,123.3c0.3,0.7,1,1.4,1.6,1.9c0.7,0.5,1.5,0.8,1.9,0.3
							c0.3-0.3,0.1-1-0.3-1.6c-0.4-0.7-1-1.4-1.7-1.8c-0.6-0.4-1.2-0.6-1.6-0.3C416.4,122,416.5,122.6,416.8,123.3z"/>
						<path class="st69" d="M403.9,121.5c0,0,1.8-11,10.7-13.5c10.2-2.9,14,5.7,14,5.7l2.2-1.1c0,0-1.5,2.9-2.8,3.9c0,0-2.9-7-9.6-7
							C407.9,109.6,403.9,121.5,403.9,121.5z"/>
					</g>
					<g>
						<path class="st89" d="M394.3,123.3c-1.6-3.2-7.4,11.2-7.4,11.2s3,4.8,7.2,4.8c4.2,0,7.3-5.1,7.3-5.1S399.1,132.7,394.3,123.3z
							"/>
						<linearGradient id="SVGID_79_" gradientUnits="userSpaceOnUse" x1="386.9705" y1="136.7325" x2="401.4438" y2="136.7325">
							<stop  offset="0" style="stop-color:#E1616A"/>
							<stop  offset="1" style="stop-color:#FF8883"/>
						</linearGradient>
						<path class="st90" d="M401.4,134.2c0,0-2.1,3.5-5.1,4.7c0,0,0,0,0,0c-0.6,0.3-1.3,0.4-2.1,0.4c-4.2,0-7.2-4.8-7.2-4.8
							c5.3,2.6,10.5,1.3,13,0.3C400.9,134.5,401.4,134.2,401.4,134.2z"/>
						<path class="st91" d="M401.4,134.2c0,0-2.1,3.5-5.1,4.7c2.9-2,3.6-4,3.6-4s-6.3-7.4-6-15.3C396.8,130,401.3,133.4,401.4,134.2
							z"/>
						<path class="st92" d="M390.2,137.1c-0.5-0.3-1-0.4-1.5-0.5c0.8,0.8,1.8,1.6,2.9,2.1C391.3,138.1,390.8,137.5,390.2,137.1z"/>
					</g>
					<linearGradient id="SVGID_80_" gradientUnits="userSpaceOnUse" x1="366.3813" y1="130.6942" x2="366.2375" y2="142.3461">
						<stop  offset="1.598750e-02" style="stop-color:#FFA58B"/>
						<stop  offset="1" style="stop-color:#FF9595"/>
					</linearGradient>
					<ellipse class="st93" cx="366.3" cy="137.1" rx="6.9" ry="4.8"/>
					<linearGradient id="SVGID_81_" gradientUnits="userSpaceOnUse" x1="422.1251" y1="131.3824" x2="421.9813" y2="143.0343">
						<stop  offset="1.598750e-02" style="stop-color:#FFA58B"/>
						<stop  offset="1" style="stop-color:#FF9595"/>
					</linearGradient>
					<ellipse class="st94" cx="422.1" cy="137.1" rx="6.9" ry="4.8"/>
					<g>
						
							<linearGradient id="SVGID_82_" gradientUnits="userSpaceOnUse" x1="1970.6272" y1="149.6164" x2="1970.6272" y2="147.6059" gradientTransform="matrix(-0.9632 -0.269 -0.269 0.9632 2348.2751 533.6588)">
							<stop  offset="1.598750e-02" style="stop-color:#FFA58B"/>
							<stop  offset="1" style="stop-color:#FF9595"/>
						</linearGradient>
						<path class="st95" d="M408.7,146.5c0.7,0.8,1.7,1.5,2.8,1.5c0.2,0,0.5-0.1,0.6-0.3c0.3-0.4-0.3-1.1-0.6-1.3
							c-0.5-0.5-1.1-0.8-1.7-1.1c-0.5-0.3-1.2-0.5-1.6-0.1C408.1,145.6,408.4,146.1,408.7,146.5z"/>
						
							<linearGradient id="SVGID_83_" gradientUnits="userSpaceOnUse" x1="1983.964" y1="147.0227" x2="1983.964" y2="144.5972" gradientTransform="matrix(-1 0 0 1 2361.0637 0)">
							<stop  offset="1.598750e-02" style="stop-color:#FFA58B"/>
							<stop  offset="1" style="stop-color:#FF9595"/>
						</linearGradient>
						<path class="st96" d="M375.7,145.7c-0.5,1-0.1,2,1.8,0.9c0.4-0.2,0.7-0.4,1-0.8c0.2-0.3,0.4-0.8,0.1-1.1
							c-0.3-0.5-1.1-0.6-1.6-0.3C376.4,144.7,376,145.2,375.7,145.7z"/>
						
							<linearGradient id="SVGID_84_" gradientUnits="userSpaceOnUse" x1="1967.3977" y1="150.6896" x2="1967.3977" y2="146.0991" gradientTransform="matrix(-1 0 0 1 2361.0637 0)">
							<stop  offset="0" style="stop-color:#E1616A"/>
							<stop  offset="1" style="stop-color:#FF8883"/>
						</linearGradient>
						<path class="st97" d="M376.9,145.4c9.6,6.5,23.5,7.3,33.5,1.3c-7,1.3-13.8-2.5-19.1-0.9C389,146.5,383.3,147.7,376.9,145.4z"
							/>
						
							<linearGradient id="SVGID_85_" gradientUnits="userSpaceOnUse" x1="1967.5255" y1="150.108" x2="1967.7615" y2="157.6603" gradientTransform="matrix(-1 0 0 1 2361.0637 0)">
							<stop  offset="0" style="stop-color:#E1616A"/>
							<stop  offset="1" style="stop-color:#FF8883"/>
						</linearGradient>
						<path class="st98" d="M410.4,146.7c0,0-5.2,6.9-9.7,9.4c-4.6,2.5-9.3,1.5-12.4,0.3c-4.5-1.8-11.4-11-11.4-11s4.9,3.5,15.2,3.7
							C402.3,149.2,405.2,149.5,410.4,146.7z"/>
						<path class="st99" d="M379.9,146.9L379.9,146.9c2.5,1,6.5,2.1,12.1,2.2c8.4,0.1,11.9,0.4,15.8-1.2l0,0c0,0-1.6,5.6-13.6,5.7
							C383.1,153.6,379.9,146.9,379.9,146.9z"/>
						<path class="st82" d="M402.7,149c-1.7,0.6-4.8,1.4-9.2,1.2c-3.4-0.1-6.9-1.1-9.6-2.1c2.2,0.5,4.9,0.8,8.2,0.9
							C396.9,149.1,400.1,149.2,402.7,149z"/>
						<path class="st82" d="M406.3,150.1c-3.8,0.8-7.6,1.3-11.4,1.4c-4.4,0.1-9-0.5-13-2.2c2,1.9,5.8,4.3,12.4,4.3
							C401.1,153.6,404.6,151.7,406.3,150.1z"/>
					</g>
					<linearGradient id="SVGID_86_" gradientUnits="userSpaceOnUse" x1="396.491" y1="119.7934" x2="406.5701" y2="37.6493">
						<stop  offset="2.025460e-03" style="stop-color:#9942B7"/>
						<stop  offset="0.9985" style="stop-color:#6456D8"/>
					</linearGradient>
					<path class="st100" d="M374.4,79.2c0,0,3.1-11.8,5.5-15.1c2-2.8,5.1-5.6,8.5-5c2,0.4,3.7,2,4.6,3.8c0.9,1.9,1.1,4,1.2,6
						c0.1,3.6-0.4,7.1,0,10.7c0.3,3.5,1.6,7.2,4.3,9.5c2.7,2.2,6.5,2.7,10,2.8c3.5,0.1,7.2-0.2,10.5,0.9c3.4,1.1,6.5,4,6.5,7.5
						c0.9-2.5,0.5-5.3-0.7-7.6c-1.2-2.3-3.4-4.1-5.9-4.8c3.4-1.4,7.7,1.3,9.6,4.4c1.9,3.1,2.2,7,2.2,10.6c0.1,3.7,0,7.4,1.3,10.9
						c2,5.2,7.5,8.8,13,8.7c5.5-0.1,10.8-3.9,12.7-9.1c0.7-1.9,0.9-4,1.5-5.9c0.6-2,1.6-3.9,3.4-4.9c1.8-1,4.4-0.7,5.4,1
						c0.4-2.9,0.7-6,0-8.9c-0.6-2.9-2.2-5.6-4.7-7.2c-2.5-1.6-5.9-1.8-8.3,0c4-7,1.4-17.2-5.2-21.7c-3.3-2.2-7.4-3.3-10-6.4
						c-3.1-3.7-2.9-9.2-4.6-13.8c-2-5.3-6.6-9.2-11.6-11.9c-10.4-5.7-23.2-6.7-34.4-2.9s-20.7,12.6-25.4,23.4
						c-3.8-4.4-11.3-5.4-16.8-3.5c-5.5,1.9-9.7,6.5-12,11.8c-2.3,5.3-2.7,11.3-2.1,17.1c0.9,9.3,15.1,30,17.1,42.9
						c0,0-2.7-21.7,6.2-27.9C364.7,88.6,360.5,54,374.4,79.2z"/>
					<linearGradient id="SVGID_87_" gradientUnits="userSpaceOnUse" x1="394.3124" y1="109.5438" x2="394.9028" y2="36.0368">
						<stop  offset="0" style="stop-color:#8642C7"/>
						<stop  offset="1" style="stop-color:#8A61EF"/>
					</linearGradient>
					<path class="st101" d="M449.1,91.8c1.6-4.4,1.1-9.5-1.3-13.5c-2.3-4-6.5-6.9-11.1-7.7c-4.6-0.8-9.7,0.3-13.6-2.2
						c-6.9-4.5-4.2-16.3-10.4-21.9c-4.1-3.8-10.5-3.1-16-1.9c-5.4,1.2-11.4,2.7-16.3,0.1c-2.4-1.3-4.1-3.5-5-6
						c4.1-3.5,8.8-6.2,13.8-7.9c11.2-3.8,24-2.8,34.4,2.9c5,2.7,9.6,6.6,11.6,11.9c1.7,4.6,1.5,10,4.6,13.8c2.6,3,6.7,4.1,10,6.4
						c3.3,2.3,5.6,6,6.6,10C455.9,81.8,453.6,87.8,449.1,91.8z M347,50.7c-5.5,1.9-9.7,6.5-12,11.8c-1.9,4.4-2.5,9.2-2.3,13.9
						c14.9-6.7,34.2-15.6,31.1-22.2C360,49.9,352.5,48.8,347,50.7z"/>
					<linearGradient id="SVGID_88_" gradientUnits="userSpaceOnUse" x1="412.795" y1="118.2411" x2="430.2637" y2="87.9618">
						<stop  offset="0" style="stop-color:#CCEDFF"/>
						<stop  offset="1" style="stop-color:#9D68C2"/>
					</linearGradient>
					<path class="st102" d="M457.6,113.5c0.7-1.9,0.9-4,1.5-5.9c0.2-0.5,0.4-1.1,0.6-1.6c-1.5,0.7-2.6,2-4,3
						c-2.1,1.4-4.8,1.9-7.3,1.3c-3.4-0.8-6.1-3.6-7.6-6.8c-1.6-3.1-2.4-3.5-3.1-6.9c-3-14.8-17.4-15.4-25.2-18
						c-7.8-2.7-9.8-16.2-9.8-16.2s-1.5,18.4,3,21.4c4.5,3,7.5,3.4,13,4.2c3.4-1.4,7.7,1.3,9.6,4.4c1.9,3.1,2.2,7,2.2,10.6
						c0.1,3.7,0,7.4,1.3,10.9c2,5.2,7.5,8.8,13,8.7C450.5,122.5,455.8,118.7,457.6,113.5z"/>
					<path class="st103" d="M374.4,79.2c-0.3-3.2,0.3-6.5,1-9.6c0.9-3.2,2.1-6.2,3.9-9.2c1-1.5,2.1-2.9,3.8-4.1c1.6-1.2,3.6-2,6-1.9
						c0.6,0,1.2,0.1,1.7,0.2c0.6,0.2,1.1,0.4,1.6,0.6c1.1,0.5,1.9,1.2,2.7,2c1.4,1.6,2.3,3.3,2.9,5.1c0.6,1.8,0.8,3.8,0.9,5.4
						c0,1.7,0,3.4-0.2,5c-0.3,3.3-0.9,6.4-1.5,9.5c-0.6,3.1-1.1,6-1.1,9c0,1.5,0.2,2.9,0.7,4.3c0.5,1.4,1.4,2.6,2.7,3.6
						c-1.6-0.3-3.1-1.4-4.1-2.8c-1-1.4-1.6-3.1-2.1-4.7c-0.8-3.3-0.8-6.7-0.6-9.9c0.1-3.2,0.5-6.3,0.6-9.3c0-1.5,0.1-3,0-4.4
						c-0.1-1.5-0.2-2.7-0.6-3.9c-0.4-1.2-1-2.3-1.6-3.1c-0.7-0.8-1.4-1.2-2.2-1.3c-0.8-0.1-1.9,0.2-2.9,0.7c-1,0.6-2,1.5-2.9,2.5
						c-1.8,2.2-3.5,4.8-4.9,7.5C376.6,73.3,375.4,76.2,374.4,79.2z"/>
					<path class="st103" d="M367.6,53.4c1.3-1.9,3.1-3.5,5-4.7c2-1.2,4.2-2.1,6.5-2.7c2.3-0.6,4.7-0.8,7.1-0.6c2.4,0.2,4.8,0.8,7,2
						c4.3,2.4,7.7,6.1,10.1,10.2c1.2,2,2.3,4.1,3.3,6.2c1,2,2,3.9,3.1,5.7c1.1,1.8,2.5,3.4,3.9,4.7c1.5,1.3,3.2,2.4,5.1,3.1
						c0.5,0.2,0.9,0.4,1.4,0.5c0.5,0.1,1,0.3,1.6,0.4c1.1,0.3,2.3,0.6,3.4,1c2.3,0.8,4.7,1.8,6.6,3.8c0.9,1,1.7,2.1,2.2,3.4
						c0.5,1.3,0.7,2.5,0.8,3.8c0.2,2.5-0.1,4.7,0.1,6.8c0.2,2,1,4.1,2.7,5.2c0.8,0.6,1.9,0.8,2.9,0.5c1-0.2,2-0.8,2.5-1.9
						c-0.2,1.2-1.1,2.1-2.3,2.6c-1.1,0.5-2.5,0.5-3.7-0.1c-2.4-1.1-3.8-3.6-4.3-5.9c-0.6-2.4-0.5-4.8-0.9-6.8c-0.2-1-0.4-2-0.8-2.8
						c-0.4-0.8-1-1.5-1.7-2.1c-1.4-1.2-3.2-2-5.3-2.6c-1-0.3-2.1-0.5-3.2-0.7c-0.5-0.1-1.1-0.2-1.8-0.4c-0.6-0.1-1.2-0.3-1.8-0.5
						c-2.4-0.8-4.7-2.1-6.5-3.8c-1.9-1.7-3.5-3.6-4.7-5.7c-1.3-2-2.3-4.2-3.3-6.3c-0.9-2.1-1.8-4.1-2.8-6c-2.1-3.8-4.7-7.2-8.2-9.6
						c-3.4-2.3-8-2.9-12.3-2.3C375.2,48.4,370.8,50.1,367.6,53.4z"/>
					<path class="st103" d="M422.8,47.7c1.7,2,3.2,3.7,4.7,5.3c1.5,1.6,3.1,3.1,4.7,4.5c1.6,1.4,3.3,2.7,5.2,4
						c1.8,1.3,3.8,2.5,6,3.8c-2.5,0.7-5.2,0.5-7.7-0.2c-2.5-0.7-4.8-2-6.8-3.7c-2-1.7-3.6-3.8-4.7-6.2C423,53,422.4,50.3,422.8,47.7
						z"/>
					<linearGradient id="SVGID_89_" gradientUnits="userSpaceOnUse" x1="334.2926" y1="80.1082" x2="367.2353" y2="80.1082">
						<stop  offset="0" style="stop-color:#CCEDFF"/>
						<stop  offset="1" style="stop-color:#9D68C2"/>
					</linearGradient>
					<path class="st104" d="M357.2,67.2c-2.8,2.3-4.5,5.6-6.3,8.7c-1.8,3.1-3.9,6.3-7.1,8c-2.9,1.5-6.2,1.6-9.5,1
						c1.1,3,2.7,6.6,4.6,10.3c2.5-0.4,5-1.3,6.9-2.9c3.2-2.7,4.7-6.8,5.9-10.9c1.1-4,2.1-8.3,4.6-11.6c2.5-3.3,7.2-5.5,11-3.8
						C364.3,64,360,64.9,357.2,67.2z"/>
				</g>
				<g>
					<path class="st69" d="M356.2,200.7c-17.5,10.1-18.4,49.2-18,61.4h-4.6c0,0,0.4-23.5,6.1-42.2c4.9-16.1,15-23.4,18.8-21
						L356.2,200.7z"/>
					
						<linearGradient id="SVGID_90_" gradientUnits="userSpaceOnUse" x1="449.246" y1="251.7065" x2="450.6069" y2="281.987" gradientTransform="matrix(-1 0 0 1 785.1201 0)">
						<stop  offset="0" style="stop-color:#C8BDF6"/>
						<stop  offset="1" style="stop-color:#F3EDFB"/>
					</linearGradient>
					<path class="st105" d="M339.2,252.3c-0.1,2.5-0.3,5-0.4,7.6c-2.5,0.2-4.1,0.6-6.6,0.7c0.4-3,0.8-6,1.2-9
						C335.3,251.8,337.2,252,339.2,252.3z"/>
					
						<linearGradient id="SVGID_91_" gradientUnits="userSpaceOnUse" x1="449.3935" y1="254.6067" x2="450.3171" y2="275.1584" gradientTransform="matrix(-1 0 0 1 785.1201 0)">
						<stop  offset="0" style="stop-color:#9D68C2"/>
						<stop  offset="1" style="stop-color:#CCEDFF"/>
					</linearGradient>
					<path class="st106" d="M337.5,255.6c0.5-0.2,1-0.5,1.5-0.9c-0.1,1.7-0.2,3.4-0.3,5.1c-2.5,0.2-4.1,0.6-6.6,0.7
						c0.2-1.2,0.3-2.4,0.5-3.6c0.3-0.1,0.5-0.1,0.8-0.2C334.8,256.4,336.2,256.2,337.5,255.6z"/>
					
						<linearGradient id="SVGID_92_" gradientUnits="userSpaceOnUse" x1="431.2158" y1="275.7341" x2="465.2268" y2="275.7341" gradientTransform="matrix(-1 0 0 1 785.1201 0)">
						<stop  offset="0" style="stop-color:#9D68C2"/>
						<stop  offset="1" style="stop-color:#CCEDFF"/>
					</linearGradient>
					<circle class="st107" cx="336.9" cy="275.7" r="17"/>
					
						<ellipse transform="matrix(0.9729 -0.2314 0.2314 0.9729 -54.3829 85.231)" class="st4" cx="336.2" cy="274.5" rx="16.2" ry="16.2"/>
					
						<linearGradient id="SVGID_93_" gradientUnits="userSpaceOnUse" x1="444.0618" y1="289.2177" x2="451.4077" y2="266.9179" gradientTransform="matrix(-1 0 0 1 785.1201 0)">
						<stop  offset="0" style="stop-color:#9D68C2"/>
						<stop  offset="1" style="stop-color:#FFFFFF"/>
					</linearGradient>
					<circle class="st108" cx="336.2" cy="274.5" r="14.5"/>
					<g>
						<path class="st69" d="M325,274.5c0-6.2,5-11.2,11.2-11.2c6.2,0,11.2,5,11.2,11.2c0,6.2-5,11.2-11.2,11.2
							C330,285.7,325,280.6,325,274.5z M327.4,274.5c0,4.9,4,8.8,8.8,8.8c4.9,0,8.8-4,8.8-8.8s-4-8.8-8.8-8.8
							C331.3,265.7,327.4,269.6,327.4,274.5z"/>
					</g>
					
						<linearGradient id="SVGID_94_" gradientUnits="userSpaceOnUse" x1="447.0222" y1="281.2041" x2="450.472" y2="268.9574" gradientTransform="matrix(-1 0 0 1 785.1201 0)">
						<stop  offset="0" style="stop-color:#9D68C2"/>
						<stop  offset="1" style="stop-color:#CCEDFF"/>
					</linearGradient>
					<path class="st109" d="M332.7,274.5c0,1.9,1.6,3.5,3.5,3.5c1.9,0,3.5-1.6,3.5-3.5c0-1.9-1.6-3.5-3.5-3.5
						C334.3,271,332.7,272.6,332.7,274.5z"/>
				</g>
				<g>
					
						<linearGradient id="SVGID_95_" gradientUnits="userSpaceOnUse" x1="321.1596" y1="260.2077" x2="360.6291" y2="260.2077" gradientTransform="matrix(-1 0 0 1 785.1201 0)">
						<stop  offset="0" style="stop-color:#9D68C2"/>
						<stop  offset="1" style="stop-color:#CCEDFF"/>
					</linearGradient>
					<path class="st110" d="M424.5,309.5c0.8-9,2.9-26.2,7.4-39.9l-0.7-0.1c2.6-7.9,6-14.8,10.4-18.3c2.3-1.9,4.9-2.8,7.5-2.8
						c0.1-9.4,0.4-20.3-4.7-32c-5.9-13.7-13.3-15.9-13.3-15.9l-2.4-2c19.3,2.9,25,34.4,23,50.2c2.6,0.7,4.9,2.2,6.7,4.7
						c3.4,4.6,4.9,12.1,5.4,20.5l-0.7-0.1c0.8,14.4-1.6,31.5-3.1,40.5c-0.8,4.6-5,7.7-9.5,7.1c-0.1,0-0.2,0-0.2,0l-0.4-0.1
						c-2,1-5.8,0.9-5.5-2.1c0.4-3,4.2-2.1,5.8-0.6l0.4,0.1c3.2,0.6,6.2-1.7,6.7-4.9c1.2-7.1,3.9-25.4,3-40.4l-0.7-0.1
						c-0.8-11.1-3.3-15.9-4.5-17.5c-1.4-2-3.2-3.1-5.3-3.4c-2.1-0.3-4.1,0.3-6,1.9c-3.5,2.8-6.4,8.5-8.9,15.7l-0.7-0.1
						c-4.7,14.2-6.8,32.6-7.4,39.8c-0.3,3.2,2,6.2,5.2,6.5l0.4,0c2-1,5.9-0.9,5.5,2.1c-0.4,3-4.1,2.1-5.8,0.6l-0.4,0
						c-0.1,0-0.2,0-0.2,0C427.4,318.3,424.1,314.1,424.5,309.5z"/>
					<g>
						<path class="st4" d="M451.2,318.5c0.3-2-6.1-4.7-6.6-0.8C444.1,321.5,451,320.5,451.2,318.5z"/>
						<path class="st4" d="M431.7,315.9c0.3-2,7.1-2.9,6.6,0.9C437.8,320.7,431.4,317.9,431.7,315.9z"/>
					</g>
					<path class="st111" d="M431.9,317.3c0.1,0,0.2,0,0.2,0l1.5,0.2c0.7,0.1,1.4-0.5,1.5-1.2c0.1-0.7-0.4-1.4-1.1-1.4c0,0,0,0,0,0
						l-1.5-0.2c-3.2-0.3-5.5-3.2-5.2-6.4c1-10.6,5.1-46.1,16.6-55.2c2-1.6,4.2-2.3,6.5-2c2.3,0.3,4.2,1.5,5.7,3.6
						c8.7,11.8,3.5,47.1,1.7,57.7c-0.5,3.2-3.5,5.4-6.7,4.8l-1.5-0.2c0,0,0,0,0,0c-0.7-0.1-1.4,0.4-1.5,1.1
						c-0.1,0.7,0.4,1.4,1.1,1.5l1.5,0.2c0.1,0,0.2,0,0.2,0c4.5,0.6,8.7-2.5,9.5-7c2.4-13.8,6.9-47.3-2.1-59.7
						c-2-2.7-4.5-4.2-7.5-4.6c-3-0.4-5.8,0.5-8.5,2.5c-12,9.6-16.3,43.1-17.6,57.1C424.1,312.6,427.4,316.7,431.9,317.3z"/>
					<path class="st69" d="M441.7,250.5c2.3-1.9,4.9-2.8,7.5-2.8c0.1-9.3,0.8-20.3-4.3-31.8c-5.9-13.5-13.7-15.4-13.7-15.4l-2.4-2
						c19.3,2.9,25,33.9,23,49.5c2.6,0.6,4.9,2.2,6.7,4.7c3.4,4.6,4.9,12,5.4,20.2l-4-0.5c-0.8-11-3.3-15.7-4.5-17.3
						c-1.4-2-3.2-3-5.3-3.3c-2.1-0.3-4.1,0.3-6,1.8c-3.5,2.8-6.4,8.4-8.9,15.5l-4-0.5C433.9,260.8,437.3,254.1,441.7,250.5z"/>
				</g>
				<g>
					<circle class="st4" cx="634.4" cy="299.3" r="3.3"/>
					<circle class="st4" cx="623.8" cy="317.9" r="0.7"/>
					<circle class="st4" cx="627.5" cy="273.2" r="1.3"/>
					<path class="st4" d="M548.7,313.1c0,1.5-1.2,2.7-2.7,2.7c-1.5,0-2.7-1.2-2.7-2.7c0-1.5,1.2-2.7,2.7-2.7
						C547.5,310.4,548.7,311.6,548.7,313.1z"/>
					<path class="st4" d="M589.5,279.8c0,1.8-1.4,3.2-3.2,3.2s-3.2-1.4-3.2-3.2c0-1.8,1.4-3.2,3.2-3.2S589.5,278,589.5,279.8z"/>
					<path class="st4" d="M605.1,323.2c0,2-1.6,3.7-3.7,3.7c-2,0-3.7-1.6-3.7-3.7c0-2,1.6-3.7,3.7-3.7
						C603.4,319.6,605.1,321.2,605.1,323.2z"/>
					<path class="st4" d="M589,353.2c0,1.9-1.5,3.5-3.5,3.5c-1.9,0-3.5-1.5-3.5-3.5s1.5-3.5,3.5-3.5
						C587.4,349.8,589,351.3,589,353.2z"/>
					<path class="st4" d="M597.2,341.8c0,0.5-0.4,0.9-0.9,0.9s-0.9-0.4-0.9-0.9c0-0.5,0.4-0.9,0.9-0.9S597.2,341.3,597.2,341.8z"/>
					<circle class="st4" cx="566" cy="331.7" r="1.5"/>
					<circle class="st4" cx="579.4" cy="336.2" r="2.7"/>
					<path class="st4" d="M578.1,320.9c0,0.6-0.5,1-1,1s-1-0.5-1-1s0.5-1,1-1S578.1,320.3,578.1,320.9z"/>
					<path class="st4" d="M577.1,345.9c0,0.9-0.7,1.6-1.6,1.6s-1.6-0.7-1.6-1.6c0-0.9,0.7-1.6,1.6-1.6S577.1,345,577.1,345.9z"/>
					<path class="st4" d="M620.2,328.4c0,1.4-1.1,2.5-2.5,2.5c-1.4,0-2.5-1.1-2.5-2.5c0-1.4,1.1-2.5,2.5-2.5
						C619.1,325.9,620.2,327,620.2,328.4z"/>
					<path class="st4" d="M577.2,300.9c0,0.9-0.7,1.7-1.7,1.7c-0.9,0-1.7-0.7-1.7-1.7s0.7-1.7,1.7-1.7
						C576.5,299.3,577.2,300,577.2,300.9z"/>
					<path class="st4" d="M586.1,288.1c0,0.6-0.5,1-1,1c-0.6,0-1-0.5-1-1c0-0.6,0.5-1,1-1C585.7,287.1,586.1,287.5,586.1,288.1z"/>
					<path class="st4" d="M629.8,324.3c0,1.3-1,2.3-2.3,2.3s-2.3-1-2.3-2.3c0-1.3,1-2.3,2.3-2.3S629.8,323,629.8,324.3z"/>
					<path class="st4" d="M610.3,318.2c0,0.8-0.6,1.4-1.4,1.4c-0.8,0-1.4-0.6-1.4-1.4c0-0.8,0.6-1.4,1.4-1.4
						C609.7,316.8,610.3,317.4,610.3,318.2z"/>
				</g>
				<g>
					<circle class="st4" cx="154" cy="299.3" r="3.3"/>
					<circle class="st4" cx="164.6" cy="317.9" r="0.7"/>
					<circle class="st4" cx="160.9" cy="273.2" r="1.3"/>
					<path class="st4" d="M239.7,313.1c0,1.5,1.2,2.7,2.7,2.7c1.5,0,2.7-1.2,2.7-2.7c0-1.5-1.2-2.7-2.7-2.7
						C240.9,310.4,239.7,311.6,239.7,313.1z"/>
					<circle class="st4" cx="202" cy="279.8" r="3.2"/>
					<path class="st4" d="M183.3,323.2c0,2,1.6,3.7,3.7,3.7c2,0,3.7-1.6,3.7-3.7c0-2-1.6-3.7-3.7-3.7
						C184.9,319.6,183.3,321.2,183.3,323.2z"/>
					<circle class="st4" cx="202.9" cy="353.2" r="3.5"/>
					<path class="st4" d="M191.1,341.8c0,0.5,0.4,0.9,0.9,0.9c0.5,0,0.9-0.4,0.9-0.9c0-0.5-0.4-0.9-0.9-0.9
						C191.5,340.9,191.1,341.3,191.1,341.8z"/>
					<circle class="st4" cx="222.3" cy="331.7" r="1.5"/>
					<circle class="st4" cx="209" cy="336.2" r="2.7"/>
					<path class="st4" d="M210.2,320.9c0,0.6,0.5,1,1,1s1-0.5,1-1s-0.5-1-1-1S210.2,320.3,210.2,320.9z"/>
					<path class="st4" d="M211.3,345.9c0,0.9,0.7,1.6,1.6,1.6c0.9,0,1.6-0.7,1.6-1.6c0-0.9-0.7-1.6-1.6-1.6
						C212,344.3,211.3,345,211.3,345.9z"/>
					<path class="st4" d="M168.2,328.4c0,1.4,1.1,2.5,2.5,2.5s2.5-1.1,2.5-2.5c0-1.4-1.1-2.5-2.5-2.5S168.2,327,168.2,328.4z"/>
					<circle class="st4" cx="212.8" cy="300.9" r="1.7"/>
					<path class="st4" d="M202.2,288.1c0,0.6,0.5,1,1,1c0.6,0,1-0.5,1-1c0-0.6-0.5-1-1-1C202.7,287.1,202.2,287.5,202.2,288.1z"/>
					<path class="st4" d="M158.6,324.3c0,1.3,1,2.3,2.3,2.3s2.3-1,2.3-2.3c0-1.3-1-2.3-2.3-2.3S158.6,323,158.6,324.3z"/>
					<path class="st4" d="M178,318.2c0,0.8,0.6,1.4,1.4,1.4c0.8,0,1.4-0.6,1.4-1.4c0-0.8-0.6-1.4-1.4-1.4
						C178.7,316.8,178,317.4,178,318.2z"/>
				</g>
			</g>
		</g>
	</g>
</g>
</svg>
