<?xml version="1.0" encoding="utf-8"?>
<!-- Generator: Adobe Illustrator 24.2.3, SVG Export Plug-In . SVG Version: 6.00 Build 0)  -->
<svg version="1.1" id="Layer_1" xmlns="http://www.w3.org/2000/svg" xmlns:xlink="http://www.w3.org/1999/xlink" x="0px" y="0px"
	 viewBox="0 0 1272 1080" style="enable-background:new 0 0 1272 1080;" xml:space="preserve">
<g>
	<polygon points="457.7,714.9 207.6,567.1 207.6,267.7 651,6.2 1105.8,256.3 1016.7,322.6 656.7,114.2 300.5,326.4 304.2,504.5 
		546.8,648.5 	"/>
	<polygon points="497.5,508.3 402.8,451.5 402.8,394.6 664.3,243 914.4,379.5 815.9,443.9 664.3,349.1 501.3,440.1 	"/>
	<polygon points="194.3,690.2 198.1,807.7 448.3,955.5 906.8,690.2 808.3,629.6 452,834.2 190.6,675.1 	"/>
	<polygon points="1009.2,743.3 562,1004.8 656.7,1073 1107.7,807.7 	"/>
</g>
</svg>
